<?xml version="1.0" encoding="UTF-8"?>
<!DOCTYPE svg PUBLIC "-//W3C//DTD SVG 1.1//EN" "http://www.w3.org/Graphics/SVG/1.1/DTD/svg11.dtd">
<svg xmlns="http://www.w3.org/2000/svg" version="1.1" width="370px" height="229px" style="shape-rendering:geometricPrecision; text-rendering:geometricPrecision; image-rendering:optimizeQuality; fill-rule:evenodd; clip-rule:evenodd" xmlns:xlink="http://www.w3.org/1999/xlink">
<g><path style="opacity:0.953" fill="#464646" d="M 136.5,39.5 C 137.506,40.3957 137.506,41.0623 136.5,41.5C 135.71,42.6085 135.21,43.9419 135,45.5C 133.872,43.6547 133.372,41.6547 133.5,39.5C 133.963,35.5164 135.463,31.8497 138,28.5C 137.997,32.1964 137.497,35.8631 136.5,39.5 Z"/></g>
<g><path style="opacity:0.006" fill="#1b1b1b" d="M 136.5,39.5 C 137.497,35.8631 137.997,32.1964 138,28.5C 135.463,31.8497 133.963,35.5164 133.5,39.5C 132.741,34.2049 134.074,29.5383 137.5,25.5C 138.896,26.8524 139.563,28.5191 139.5,30.5C 139.25,33.8673 138.25,36.8673 136.5,39.5 Z"/></g>
<g><path style="opacity:1" fill="#4d5358" d="M 26.5,33.5 C 29.3852,33.643 31.7185,34.643 33.5,36.5C 32.2617,36.81 32.2617,37.31 33.5,38C 35,38.5 36.5,39 38,39.5C 38.7648,39.4301 39.2648,39.0967 39.5,38.5C 42.8597,38.5821 46.5264,39.9154 50.5,42.5C 50.5,42.8333 50.5,43.1667 50.5,43.5C 50.9528,44.4584 51.6195,45.2917 52.5,46C 50.7795,46.7393 49.1128,47.5726 47.5,48.5C 47.8627,49.1835 48.1961,49.8501 48.5,50.5C 46.7162,50.1075 45.0495,49.4408 43.5,48.5C 42.089,46.461 40.089,45.461 37.5,45.5C 34.1762,42.8781 30.5095,40.7114 26.5,39C 20.6604,37.718 14.9938,36.0513 9.5,34C 11.5336,32.9944 13.7002,32.4944 16,32.5C 19.4899,32.9987 22.9899,33.332 26.5,33.5 Z"/></g>
<g><path style="opacity:0.702" fill="#16181a" d="M 26.5,33.5 C 22.9899,33.332 19.4899,32.9987 16,32.5C 13.7002,32.4944 11.5336,32.9944 9.5,34C 14.9938,36.0513 20.6604,37.718 26.5,39C 30.5095,40.7114 34.1762,42.8781 37.5,45.5C 26.6298,41.4873 15.6298,37.9873 4.5,35C 7.0704,31.4677 10.5704,29.9677 15,30.5C 19.2549,30.3539 23.0882,31.3539 26.5,33.5 Z"/></g>
<g><path style="opacity:0.969" fill="#818588" d="M 33.5,36.5 C 35.2012,36.9662 36.7012,36.9662 38,36.5C 38.7172,37.0442 39.2172,37.7109 39.5,38.5C 39.2648,39.0967 38.7648,39.4301 38,39.5C 36.5,39 35,38.5 33.5,38C 32.2617,37.31 32.2617,36.81 33.5,36.5 Z"/></g>
<g><path style="opacity:0.012" fill="#141516" d="M 54.5,43.5 C 53.1667,43.5 51.8333,43.5 50.5,43.5C 50.5,43.1667 50.5,42.8333 50.5,42.5C 50.4346,42.0618 50.6012,41.7284 51,41.5C 52.3024,42.0848 53.469,42.7515 54.5,43.5 Z"/></g>
<g><path style="opacity:0.765" fill="#191919" d="M 133.5,39.5 C 133.372,41.6547 133.872,43.6547 135,45.5C 135.21,43.9419 135.71,42.6085 136.5,41.5C 135.632,44.9355 135.632,48.2688 136.5,51.5C 135.833,50.5 135.167,49.5 134.5,48.5C 132.721,46.6565 130.388,45.9898 127.5,46.5C 127.59,49.1522 126.924,51.4855 125.5,53.5C 125.678,50.7835 126.178,48.1168 127,45.5C 130.347,44.6493 132.513,42.6493 133.5,39.5 Z"/></g>
<g><path style="opacity:0.078" fill="#0c0d11" d="M 37.5,45.5 C 40.089,45.461 42.089,46.461 43.5,48.5C 41.1815,48.0075 39.1815,47.0075 37.5,45.5 Z"/></g>
<g><path style="opacity:1" fill="#484b4f" d="M 54.5,43.5 C 57.2406,43.7073 59.5739,44.7073 61.5,46.5C 58.9253,47.2793 56.592,47.1127 54.5,46C 55.5981,45.2303 55.5981,44.397 54.5,43.5 Z"/></g>
<g><path style="opacity:1" fill="#585d62" d="M 134.5,48.5 C 132.252,51.5421 131.919,54.8754 133.5,58.5C 131.94,58.4809 130.44,58.1476 129,57.5C 128.055,57.9054 127.388,58.572 127,59.5C 126.722,58.5842 126.222,57.9175 125.5,57.5C 125.5,56.1667 125.5,54.8333 125.5,53.5C 126.924,51.4855 127.59,49.1522 127.5,46.5C 130.388,45.9898 132.721,46.6565 134.5,48.5 Z"/></g>
<g><path style="opacity:0.981" fill="#767c81" d="M 50.5,43.5 C 51.8333,43.5 53.1667,43.5 54.5,43.5C 55.5981,44.397 55.5981,45.2303 54.5,46C 56.592,47.1127 58.9253,47.2793 61.5,46.5C 62.6002,47.5585 63.9336,48.3918 65.5,49C 63.8204,49.0343 62.3204,49.201 61,49.5C 59.1438,51.7374 59.6438,53.5707 62.5,55C 61.9056,55.4643 61.2389,55.631 60.5,55.5C 58.3155,53.4152 55.6489,52.4152 52.5,52.5C 50.847,52.3404 49.5137,51.6737 48.5,50.5C 48.1961,49.8501 47.8627,49.1835 47.5,48.5C 49.1128,47.5726 50.7795,46.7393 52.5,46C 51.6195,45.2917 50.9528,44.4584 50.5,43.5 Z"/></g>
<g><path style="opacity:1" fill="#434a4e" d="M 61.5,46.5 C 67.1252,48.316 72.4585,50.6493 77.5,53.5C 79.1955,55.6855 81.3622,57.3522 84,58.5C 84.414,58.0426 84.914,57.7093 85.5,57.5C 87.1789,59.1045 89.1789,59.7711 91.5,59.5C 92.397,60.5981 93.2303,60.5981 94,59.5C 94.7172,60.0442 95.2172,60.7109 95.5,61.5C 93.5419,63.7118 92.5419,66.0452 92.5,68.5C 91.8333,68.5 91.1667,68.5 90.5,68.5C 80.4186,65.0049 70.4186,60.6715 60.5,55.5C 61.2389,55.631 61.9056,55.4643 62.5,55C 59.6438,53.5707 59.1438,51.7374 61,49.5C 62.3204,49.201 63.8204,49.0343 65.5,49C 63.9336,48.3918 62.6002,47.5585 61.5,46.5 Z"/></g>
<g><path style="opacity:0.016" fill="#1d1f21" d="M 52.5,52.5 C 55.6489,52.4152 58.3155,53.4152 60.5,55.5C 57.5568,55.0198 54.8902,54.0198 52.5,52.5 Z"/></g>
<g><path style="opacity:1" fill="#242728" d="M 77.5,53.5 C 82.6422,54.5422 87.3089,56.5422 91.5,59.5C 89.1789,59.7711 87.1789,59.1045 85.5,57.5C 84.914,57.7093 84.414,58.0426 84,58.5C 81.3622,57.3522 79.1955,55.6855 77.5,53.5 Z"/></g>
<g><path style="opacity:1" fill="#383d41" d="M 134.5,48.5 C 135.167,49.5 135.833,50.5 136.5,51.5C 136.5,51.8333 136.5,52.1667 136.5,52.5C 136.666,56.8461 136.499,61.1794 136,65.5C 135.667,63.5 135.333,61.5 135,59.5C 132.804,62.1252 129.97,63.1252 126.5,62.5C 126.172,65.9816 126.172,69.3149 126.5,72.5C 125.5,72.5 124.5,72.5 123.5,72.5C 122.244,72.9038 121.077,73.5705 120,74.5C 119.5,74.3333 119,74.1667 118.5,74C 119.756,73.5831 120.423,72.7498 120.5,71.5C 120.833,71.5 121.167,71.5 121.5,71.5C 122.833,71.5 123.5,70.8333 123.5,69.5C 123.586,68.5041 123.252,67.6708 122.5,67C 124.816,65.5324 125.149,63.6991 123.5,61.5C 124.225,60.1331 124.892,58.7997 125.5,57.5C 126.222,57.9175 126.722,58.5842 127,59.5C 127.388,58.572 128.055,57.9054 129,57.5C 130.44,58.1476 131.94,58.4809 133.5,58.5C 131.919,54.8754 132.252,51.5421 134.5,48.5 Z"/></g>
<g><path style="opacity:0.353" fill="#1a1d1f" d="M 180.5,59.5 C 175.77,59.2834 171.103,59.6167 166.5,60.5C 166.611,59.8826 166.944,59.3826 167.5,59C 172.02,58.1864 176.354,58.353 180.5,59.5 Z"/></g>
<g><path style="opacity:0.082" fill="#161819" d="M 180.5,59.5 C 184.924,59.2724 188.924,60.2724 192.5,62.5C 188.264,61.9915 184.264,60.9915 180.5,59.5 Z"/></g>
<g><path style="opacity:1" fill="#697177" d="M 180.5,59.5 C 184.264,60.9915 188.264,61.9915 192.5,62.5C 194.099,62.2322 195.432,62.5655 196.5,63.5C 197.234,64.7079 197.567,66.0413 197.5,67.5C 188.518,66.8005 179.518,66.1339 170.5,65.5C 168.074,65.4035 165.907,66.0702 164,67.5C 163.616,65.8034 163.782,64.1368 164.5,62.5C 164.5,61.1667 165.167,60.5 166.5,60.5C 171.103,59.6167 175.77,59.2834 180.5,59.5 Z"/></g>
<g><path style="opacity:0.455" fill="#4c4c4c" d="M 274.5,62.5 C 276.288,61.3775 278.288,61.2109 280.5,62C 279.255,62.7914 277.922,63.2914 276.5,63.5C 276.158,62.6618 275.492,62.3284 274.5,62.5 Z"/></g>
<g><path style="opacity:0.494" fill="#1d1e20" d="M 113.5,57.5 C 111.196,59.2587 108.529,60.4254 105.5,61C 106.801,62.6155 106.801,64.1155 105.5,65.5C 103.847,65.3404 102.514,64.6737 101.5,63.5C 102.822,63.33 103.989,63.6634 105,64.5C 104.49,62.6199 104.657,60.7866 105.5,59C 108.034,58.4837 110.2,57.317 112,55.5C 112.717,56.0442 113.217,56.7109 113.5,57.5 Z"/></g>
<g><path style="opacity:0.941" fill="#15171a" d="M 125.5,53.5 C 125.5,54.8333 125.5,56.1667 125.5,57.5C 124.892,58.7997 124.225,60.1331 123.5,61.5C 125.149,63.6991 124.816,65.5324 122.5,67C 123.252,67.6708 123.586,68.5041 123.5,69.5C 121.959,67.2064 120.625,67.2064 119.5,69.5C 120.243,70.1818 120.909,70.8485 121.5,71.5C 121.167,71.5 120.833,71.5 120.5,71.5C 119.209,71.7373 118.209,71.404 117.5,70.5C 118.833,69.1667 118.833,67.8333 117.5,66.5C 117.953,65.5416 118.619,64.7083 119.5,64C 115.939,63.2723 113.939,61.1057 113.5,57.5C 114.837,58.3149 115.837,59.4815 116.5,61C 121.434,60.9048 124.434,58.4048 125.5,53.5 Z"/></g>
<g><path style="opacity:1" fill="#636b6f" d="M 95.5,61.5 C 95.8333,61.5 96.1667,61.5 96.5,61.5C 94.1652,67.5602 95.9985,69.8935 102,68.5C 102.195,69.8193 102.028,71.1526 101.5,72.5C 98.3777,71.4388 95.3777,70.1054 92.5,68.5C 92.5419,66.0452 93.5419,63.7118 95.5,61.5 Z"/></g>
<g><path style="opacity:1" fill="#141519" d="M 136.5,52.5 C 137.396,60.7806 137.396,69.114 136.5,77.5C 135.5,76.8333 134.5,76.1667 133.5,75.5C 130.794,75.3122 128.461,74.3122 126.5,72.5C 126.172,69.3149 126.172,65.9816 126.5,62.5C 129.97,63.1252 132.804,62.1252 135,59.5C 135.333,61.5 135.667,63.5 136,65.5C 136.499,61.1794 136.666,56.8461 136.5,52.5 Z"/></g>
<g><path style="opacity:1" fill="#454c53" d="M 113.5,57.5 C 113.939,61.1057 115.939,63.2723 119.5,64C 118.619,64.7083 117.953,65.5416 117.5,66.5C 113.856,66.7077 111.689,68.7077 111,72.5C 109.72,69.7511 107.887,68.5844 105.5,69C 106.171,68.0138 106.171,66.8471 105.5,65.5C 106.801,64.1155 106.801,62.6155 105.5,61C 108.529,60.4254 111.196,59.2587 113.5,57.5 Z"/></g>
<g><path style="opacity:1" fill="#3f464c" d="M 164.5,62.5 C 163.782,64.1368 163.616,65.8034 164,67.5C 165.907,66.0702 168.074,65.4035 170.5,65.5C 179.518,66.1339 188.518,66.8005 197.5,67.5C 197.567,66.0413 197.234,64.7079 196.5,63.5C 198.404,63.7376 199.738,64.7376 200.5,66.5C 201.497,69.3283 201.497,71.995 200.5,74.5C 199.478,69.5593 196.311,67.5593 191,68.5C 184.154,69.5864 177.321,70.753 170.5,72C 167.81,72.3345 167.143,73.5012 168.5,75.5C 166.833,74.8333 165.167,74.1667 163.5,73.5C 162.359,70.3601 162.192,67.0267 163,63.5C 163.383,62.944 163.883,62.6107 164.5,62.5 Z"/></g>
<g><path style="opacity:1" fill="#495257" d="M 101.5,63.5 C 102.514,64.6737 103.847,65.3404 105.5,65.5C 106.171,66.8471 106.171,68.0138 105.5,69C 107.887,68.5844 109.72,69.7511 111,72.5C 111.689,68.7077 113.856,66.7077 117.5,66.5C 118.833,67.8333 118.833,69.1667 117.5,70.5C 115.563,73.006 112.896,74.506 109.5,75C 109.833,75.3333 110.167,75.6667 110.5,76C 109.207,76.49 107.873,76.6567 106.5,76.5C 104.847,76.3404 103.514,75.6737 102.5,74.5C 102.167,73.8333 101.833,73.1667 101.5,72.5C 102.028,71.1526 102.195,69.8193 102,68.5C 95.9985,69.8935 94.1652,67.5602 96.5,61.5C 96.4346,61.0618 96.6012,60.7284 97,60.5C 98.6516,61.3994 100.152,62.3994 101.5,63.5 Z"/></g>
<g><path style="opacity:1" fill="#1c2025" d="M 200.5,74.5 C 199.015,75.9349 197.682,75.7683 196.5,74C 186.805,73.1168 177.471,73.6168 168.5,75.5C 167.143,73.5012 167.81,72.3345 170.5,72C 177.321,70.753 184.154,69.5864 191,68.5C 196.311,67.5593 199.478,69.5593 200.5,74.5 Z"/></g>
<g><path style="opacity:0.016" fill="#0e1112" d="M 90.5,68.5 C 91.1667,68.5 91.8333,68.5 92.5,68.5C 95.3777,70.1054 98.3777,71.4388 101.5,72.5C 101.833,73.1667 102.167,73.8333 102.5,74.5C 98.1822,73.0078 94.1822,71.0078 90.5,68.5 Z"/></g>
<g><path style="opacity:0.886" fill="#979798" d="M 274.5,62.5 C 275.492,62.3284 276.158,62.6618 276.5,63.5C 263.396,69.3843 250.063,74.7176 236.5,79.5C 234.821,79.7148 233.821,79.0481 233.5,77.5C 242.86,72.8711 252.527,68.7045 262.5,65C 266.378,63.5302 270.378,62.6969 274.5,62.5 Z"/></g>
<g><path style="opacity:1" fill="#141516" d="M 200.5,66.5 C 203.805,71.8184 202.805,76.3184 197.5,80C 194.899,80.9203 192.232,81.587 189.5,82C 188.947,83.8778 187.947,85.3778 186.5,86.5C 184.956,84.1576 184.622,81.6576 185.5,79C 183.939,78.8119 183.272,79.6453 183.5,81.5C 181.5,81.5 179.5,81.5 177.5,81.5C 176.833,83.5 176.167,85.5 175.5,87.5C 174.222,87.7822 173.222,88.4489 172.5,89.5C 172.665,86.1501 172.498,82.8168 172,79.5C 168.883,77.763 166.049,75.763 163.5,73.5C 165.167,74.1667 166.833,74.8333 168.5,75.5C 177.471,73.6168 186.805,73.1168 196.5,74C 197.682,75.7683 199.015,75.9349 200.5,74.5C 201.497,71.995 201.497,69.3283 200.5,66.5 Z"/></g>
<g><path style="opacity:1" fill="#464f54" d="M 117.5,70.5 C 118.209,71.404 119.209,71.7373 120.5,71.5C 120.423,72.7498 119.756,73.5831 118.5,74C 119,74.1667 119.5,74.3333 120,74.5C 121.077,73.5705 122.244,72.9038 123.5,72.5C 123.137,74.9115 124.137,76.4115 126.5,77C 125.809,78.0674 125.309,79.2341 125,80.5C 124.586,80.0426 124.086,79.7093 123.5,79.5C 122.158,81.0049 120.492,81.6715 118.5,81.5C 116.781,80.9779 115.448,79.9779 114.5,78.5C 113.791,77.596 112.791,77.2627 111.5,77.5C 111.66,79.1992 111.494,80.8659 111,82.5C 110.79,80.9419 110.29,79.6085 109.5,78.5C 109.5,77.8333 109.167,77.5 108.5,77.5C 107.508,77.6716 106.842,77.3382 106.5,76.5C 107.873,76.6567 109.207,76.49 110.5,76C 110.167,75.6667 109.833,75.3333 109.5,75C 112.896,74.506 115.563,73.006 117.5,70.5 Z"/></g>
<g><path style="opacity:1" fill="#384147" d="M 123.5,72.5 C 124.5,72.5 125.5,72.5 126.5,72.5C 128.461,74.3122 130.794,75.3122 133.5,75.5C 132.587,77.0861 132.587,78.5861 133.5,80C 131.964,81.4681 131.63,82.9681 132.5,84.5C 131.134,86.3505 129.467,86.6838 127.5,85.5C 126.808,86.0253 126.308,86.6919 126,87.5C 125.333,90.8333 125.333,94.1667 126,97.5C 126.333,96.8333 126.667,96.1667 127,95.5C 129.196,99.5382 128.03,100.538 123.5,98.5C 123.5,93.1667 123.5,87.8333 123.5,82.5C 122.5,82.5 121.5,82.5 120.5,82.5C 119.508,82.6716 118.842,82.3382 118.5,81.5C 120.492,81.6715 122.158,81.0049 123.5,79.5C 124.086,79.7093 124.586,80.0426 125,80.5C 125.309,79.2341 125.809,78.0674 126.5,77C 124.137,76.4115 123.137,74.9115 123.5,72.5 Z"/></g>
<g><path style="opacity:0.965" fill="#1d2021" d="M 136.5,77.5 C 140.042,78.5403 143.375,79.8737 146.5,81.5C 143.438,81.1558 140.438,80.4891 137.5,79.5C 137.137,78.8165 136.804,78.1499 136.5,77.5 Z"/></g>
<g><path style="opacity:1" fill="#495054" d="M 133.5,75.5 C 134.5,76.1667 135.5,76.8333 136.5,77.5C 136.804,78.1499 137.137,78.8165 137.5,79.5C 140.438,80.4891 143.438,81.1558 146.5,81.5C 151.132,82.5961 155.466,84.2628 159.5,86.5C 158.71,87.4013 157.71,88.0679 156.5,88.5C 154.106,87.26 152.44,85.9267 151.5,84.5C 147.845,85.7259 144.178,85.7259 140.5,84.5C 138.645,84.3402 137.312,85.0069 136.5,86.5C 136.167,86.5 135.833,86.5 135.5,86.5C 134.71,85.5987 133.71,84.9321 132.5,84.5C 131.63,82.9681 131.964,81.4681 133.5,80C 132.587,78.5861 132.587,77.0861 133.5,75.5 Z"/></g>
<g><path style="opacity:0.022" fill="#020303" d="M 120.5,82.5 C 121.5,82.5 122.5,82.5 123.5,82.5C 123.5,87.8333 123.5,93.1667 123.5,98.5C 121.167,98.5 118.833,98.5 116.5,98.5C 115.833,98.5 115.167,98.5 114.5,98.5C 113.833,98.5 113.5,98.1667 113.5,97.5C 116.5,97.5 119.5,97.5 122.5,97.5C 123.026,92.193 122.36,87.193 120.5,82.5 Z"/></g>
<g><path style="opacity:0.939" fill="#2f2f30" d="M 114.5,78.5 C 112.953,83.9091 111.453,89.5757 110,95.5C 109.501,89.8431 109.334,84.1764 109.5,78.5C 110.29,79.6085 110.79,80.9419 111,82.5C 111.494,80.8659 111.66,79.1992 111.5,77.5C 112.791,77.2627 113.791,77.596 114.5,78.5 Z"/></g>
<g><path style="opacity:1" fill="#676c70" d="M 156.5,88.5 C 155.167,89.1667 153.833,89.8333 152.5,90.5C 151.848,89.2749 150.681,88.6083 149,88.5C 146.183,87.9695 143.35,87.6361 140.5,87.5C 140.167,87.5 139.833,87.5 139.5,87.5C 138.791,86.596 137.791,86.2627 136.5,86.5C 137.312,85.0069 138.645,84.3402 140.5,84.5C 144.178,85.7259 147.845,85.7259 151.5,84.5C 152.44,85.9267 154.106,87.26 156.5,88.5 Z"/></g>
<g><path style="opacity:0.038" fill="#030405" d="M 134.5,86.5 C 134.833,86.5 135.167,86.5 135.5,86.5C 135.833,86.5 136.167,86.5 136.5,86.5C 137.791,86.2627 138.791,86.596 139.5,87.5C 138.167,87.5 136.833,87.5 135.5,87.5C 135.5,90.5 135.5,93.5 135.5,96.5C 138.833,96.5 142.167,96.5 145.5,96.5C 143.735,97.4614 141.735,97.7947 139.5,97.5C 137.833,97.5 136.167,97.5 134.5,97.5C 134.5,93.8333 134.5,90.1667 134.5,86.5 Z"/></g>
<g><path style="opacity:0.986" fill="#373a3d" d="M 140.5,87.5 C 143.35,87.6361 146.183,87.9695 149,88.5C 150.681,88.6083 151.848,89.2749 152.5,90.5C 148.445,90.4867 144.445,89.4867 140.5,87.5 Z"/></g>
<g><path style="opacity:0.286" fill="#1f2022" d="M 202.5,88.5 C 201.791,89.404 200.791,89.7373 199.5,89.5C 200.221,87.6182 201.221,87.2848 202.5,88.5 Z"/></g>
<g><path style="opacity:0.006" fill="#181818" d="M 217.5,87.5 C 216.713,89.1042 215.38,89.7709 213.5,89.5C 214.514,88.3263 215.847,87.6596 217.5,87.5 Z"/></g>
<g><path style="opacity:1" fill="#55595e" d="M 167.5,88.5 C 169.961,91.4714 168.961,93.138 164.5,93.5C 163.284,91.5491 161.618,90.0491 159.5,89C 160.108,88.1301 160.941,87.6301 162,87.5C 163.766,88.2335 165.599,88.5668 167.5,88.5 Z"/></g>
<g><path style="opacity:1" fill="#0c0d10" d="M 186.5,86.5 C 185.167,87.8333 185.167,89.1667 186.5,90.5C 185.069,90.1193 184.236,89.1193 184,87.5C 181.63,90.7609 182.464,92.4276 186.5,92.5C 187.167,94.8333 187.833,97.1667 188.5,99.5C 186.084,98.0318 183.417,97.3651 180.5,97.5C 178.692,98.9179 178.025,100.918 178.5,103.5C 177.209,103.737 176.209,103.404 175.5,102.5C 176.162,97.1727 176.162,92.1727 175.5,87.5C 176.167,85.5 176.833,83.5 177.5,81.5C 179.5,81.5 181.5,81.5 183.5,81.5C 183.272,79.6453 183.939,78.8119 185.5,79C 184.622,81.6576 184.956,84.1576 186.5,86.5 Z"/></g>
<g><path style="opacity:1" fill="#848688" d="M 233.5,77.5 C 233.821,79.0481 234.821,79.7148 236.5,79.5C 230.557,82.9305 224.224,85.5972 217.5,87.5C 215.847,87.6596 214.514,88.3263 213.5,89.5C 210.301,90.8991 206.968,91.8991 203.5,92.5C 200.985,92.2309 198.985,91.2309 197.5,89.5C 198.167,89.5 198.833,89.5 199.5,89.5C 200.791,89.7373 201.791,89.404 202.5,88.5C 212.758,84.6362 223.091,80.9696 233.5,77.5 Z"/></g>
<g><path style="opacity:0.132" fill="#070808" d="M 108.5,77.5 C 109.167,77.5 109.5,77.8333 109.5,78.5C 109.334,84.1764 109.501,89.8431 110,95.5C 111.453,89.5757 112.953,83.9091 114.5,78.5C 115.448,79.9779 116.781,80.9779 118.5,81.5C 116.833,81.5 115.167,81.5 113.5,81.5C 113.915,86.2062 113.248,90.7062 111.5,95C 112.381,95.7083 113.047,96.5416 113.5,97.5C 111.097,97.448 108.764,97.7814 106.5,98.5C 106.783,97.7109 107.283,97.0442 108,96.5C 108.5,90.1754 108.666,83.8421 108.5,77.5 Z"/></g>
<g><path style="opacity:1" fill="#202426" d="M 186.5,90.5 C 190.179,90.6374 193.679,89.9707 197,88.5C 197.399,88.7284 197.565,89.0618 197.5,89.5C 198.985,91.2309 200.985,92.2309 203.5,92.5C 201.877,93.7794 200.21,95.1128 198.5,96.5C 200.397,98.0167 202.397,99.3501 204.5,100.5C 200.741,100.138 197.407,98.8046 194.5,96.5C 193.85,96.1961 193.183,95.8627 192.5,95.5C 191.304,95.8457 191.304,96.3457 192.5,97C 188.639,97.5691 188.639,98.4024 192.5,99.5C 192.333,99.8333 192.167,100.167 192,100.5C 190.989,99.6634 189.822,99.33 188.5,99.5C 187.833,97.1667 187.167,94.8333 186.5,92.5C 182.464,92.4276 181.63,90.7609 184,87.5C 184.236,89.1193 185.069,90.1193 186.5,90.5 Z"/></g>
<g><path style="opacity:1" fill="#2b3034" d="M 159.5,86.5 C 162.495,86.2938 165.162,86.9605 167.5,88.5C 165.599,88.5668 163.766,88.2335 162,87.5C 160.941,87.6301 160.108,88.1301 159.5,89C 161.618,90.0491 163.284,91.5491 164.5,93.5C 164.087,96.4151 162.421,98.2484 159.5,99C 160.833,99.3333 162.167,99.6667 163.5,100C 162.584,100.278 161.918,100.778 161.5,101.5C 160.833,101.5 160.167,101.5 159.5,101.5C 158.22,100.069 156.553,99.4021 154.5,99.5C 154.5,98.5 154.5,97.5 154.5,96.5C 151.5,96.5 148.5,96.5 145.5,96.5C 148.36,95.7561 151.36,95.0894 154.5,94.5C 154.833,94.1667 155.167,93.8333 155.5,93.5C 154.23,92.7124 153.23,91.7124 152.5,90.5C 153.833,89.8333 155.167,89.1667 156.5,88.5C 157.71,88.0679 158.71,87.4013 159.5,86.5 Z"/></g>
<g><path style="opacity:0.994" fill="#4d5358" d="M 145.5,96.5 C 148.5,96.5 151.5,96.5 154.5,96.5C 154.5,97.5 154.5,98.5 154.5,99.5C 156.553,99.4021 158.22,100.069 159.5,101.5C 157.102,101.259 155.102,101.926 153.5,103.5C 151.879,103.213 150.879,102.213 150.5,100.5C 145.921,99.2998 141.421,99.6332 137,101.5C 136.5,101.167 136,100.833 135.5,100.5C 136.901,99.4793 138.235,98.4793 139.5,97.5C 141.735,97.7947 143.735,97.4614 145.5,96.5 Z"/></g>
<g><path style="opacity:1" fill="#202227" d="M 175.5,87.5 C 176.162,92.1727 176.162,97.1727 175.5,102.5C 174.417,102.539 173.417,102.873 172.5,103.5C 171.293,101.73 169.626,100.73 167.5,100.5C 165.547,101.156 163.547,101.489 161.5,101.5C 161.918,100.778 162.584,100.278 163.5,100C 162.167,99.6667 160.833,99.3333 159.5,99C 162.421,98.2484 164.087,96.4151 164.5,93.5C 168.961,93.138 169.961,91.4714 167.5,88.5C 169.216,88.6287 170.883,88.962 172.5,89.5C 173.222,88.4489 174.222,87.7822 175.5,87.5 Z"/></g>
<g><path style="opacity:1" fill="#222628" d="M 194.5,96.5 C 195.794,98.3284 196.794,100.328 197.5,102.5C 198.873,102.343 200.207,102.51 201.5,103C 199.942,103.21 198.609,103.71 197.5,104.5C 192.2,103.025 186.866,102.692 181.5,103.5C 182.59,104.609 182.59,105.609 181.5,106.5C 179.312,103.705 178.979,100.705 180.5,97.5C 183.417,97.3651 186.084,98.0318 188.5,99.5C 189.822,99.33 190.989,99.6634 192,100.5C 192.167,100.167 192.333,99.8333 192.5,99.5C 188.639,98.4024 188.639,97.5691 192.5,97C 191.304,96.3457 191.304,95.8457 192.5,95.5C 193.183,95.8627 193.85,96.1961 194.5,96.5 Z"/></g>
<g><path style="opacity:0.565" fill="#191c1d" d="M 106.5,98.5 C 104.708,99.3091 102.708,99.8091 100.5,100C 94.1754,100.5 87.8421,100.666 81.5,100.5C 89.6552,99.4669 97.9885,98.8002 106.5,98.5 Z"/></g>
<g><path style="opacity:1" fill="#3c444a" d="M 132.5,84.5 C 133.71,84.9321 134.71,85.5987 135.5,86.5C 135.167,86.5 134.833,86.5 134.5,86.5C 132.586,89.6843 131.92,93.351 132.5,97.5C 128.828,98.0447 129.162,98.3781 133.5,98.5C 133.671,101.797 133.005,102.131 131.5,99.5C 130.572,101.335 129.406,101.668 128,100.5C 125.174,102.34 122.007,103.006 118.5,102.5C 118.473,100.801 117.806,99.4674 116.5,98.5C 118.833,98.5 121.167,98.5 123.5,98.5C 128.03,100.538 129.196,99.5382 127,95.5C 126.667,96.1667 126.333,96.8333 126,97.5C 125.333,94.1667 125.333,90.8333 126,87.5C 126.308,86.6919 126.808,86.0253 127.5,85.5C 129.467,86.6838 131.134,86.3505 132.5,84.5 Z"/></g>
<g><path style="opacity:0.975" fill="#686a6d" d="M 194.5,96.5 C 197.407,98.8046 200.741,100.138 204.5,100.5C 205.028,101.721 205.695,102.887 206.5,104C 204.19,104.497 201.857,104.663 199.5,104.5C 198.833,104.5 198.167,104.5 197.5,104.5C 198.609,103.71 199.942,103.21 201.5,103C 200.207,102.51 198.873,102.343 197.5,102.5C 196.794,100.328 195.794,98.3284 194.5,96.5 Z"/></g>
<g><path style="opacity:0.596" fill="#17191a" d="M 79.5,100.5 C 74.3839,101.806 69.0506,102.473 63.5,102.5C 63.5,103.5 63.5,104.5 63.5,105.5C 61.1998,103.798 58.5331,103.132 55.5,103.5C 63.2546,101.636 71.2546,100.636 79.5,100.5 Z"/></g>
<g><path style="opacity:1" fill="#394045" d="M 113.5,97.5 C 113.5,98.1667 113.833,98.5 114.5,98.5C 112.369,99.3138 110.036,99.8138 107.5,100C 108.993,101.368 110.493,101.535 112,100.5C 112.875,102.513 114.209,102.513 116,100.5C 117.634,102.497 119.468,104.164 121.5,105.5C 118.098,105.342 114.764,105.676 111.5,106.5C 110.833,106.5 110.167,106.5 109.5,106.5C 107.438,105.224 105.104,104.39 102.5,104C 102.957,103.586 103.291,103.086 103.5,102.5C 101.579,101.359 99.5787,101.192 97.5,102C 100.668,102.582 101.001,103.582 98.5,105C 86.8381,105.5 75.1714,105.667 63.5,105.5C 63.5,104.5 63.5,103.5 63.5,102.5C 69.0506,102.473 74.3839,101.806 79.5,100.5C 80.1667,100.5 80.8333,100.5 81.5,100.5C 87.8421,100.666 94.1754,100.5 100.5,100C 102.708,99.8091 104.708,99.3091 106.5,98.5C 108.764,97.7814 111.097,97.448 113.5,97.5 Z"/></g>
<g><path style="opacity:0.992" fill="#353c41" d="M 134.5,86.5 C 134.5,90.1667 134.5,93.8333 134.5,97.5C 136.167,97.5 137.833,97.5 139.5,97.5C 138.235,98.4793 136.901,99.4793 135.5,100.5C 136,100.833 136.5,101.167 137,101.5C 141.421,99.6332 145.921,99.2998 150.5,100.5C 150.879,102.213 151.879,103.213 153.5,103.5C 151.162,105.04 148.495,105.706 145.5,105.5C 142.15,105.335 138.817,105.502 135.5,106C 134.944,106.383 134.611,106.883 134.5,107.5C 132.29,108.455 131.957,109.955 133.5,112C 137.17,112.548 140.837,113.048 144.5,113.5C 143.264,115.043 141.598,116.043 139.5,116.5C 136.451,114.534 133.118,114.034 129.5,115C 128.23,115.9 127.23,117.066 126.5,118.5C 125.173,115.786 124.339,112.786 124,109.5C 121.825,108.745 119.659,107.912 117.5,107C 119.5,106.667 121.5,106.333 123.5,106C 122.906,105.536 122.239,105.369 121.5,105.5C 119.468,104.164 117.634,102.497 116,100.5C 114.209,102.513 112.875,102.513 112,100.5C 110.493,101.535 108.993,101.368 107.5,100C 110.036,99.8138 112.369,99.3138 114.5,98.5C 115.167,98.5 115.833,98.5 116.5,98.5C 117.806,99.4674 118.473,100.801 118.5,102.5C 122.007,103.006 125.174,102.34 128,100.5C 129.406,101.668 130.572,101.335 131.5,99.5C 133.005,102.131 133.671,101.797 133.5,98.5C 129.162,98.3781 128.828,98.0447 132.5,97.5C 131.92,93.351 132.586,89.6843 134.5,86.5 Z"/></g>
<g><path style="opacity:0.997" fill="#121315" d="M 180.5,97.5 C 178.979,100.705 179.312,103.705 181.5,106.5C 182.59,105.609 182.59,104.609 181.5,103.5C 186.866,102.692 192.2,103.025 197.5,104.5C 198.167,104.5 198.833,104.5 199.5,104.5C 199.5,104.833 199.5,105.167 199.5,105.5C 195.563,105.207 191.73,105.54 188,106.5C 187.64,108.421 186.806,110.088 185.5,111.5C 187.884,112.011 189.884,113.011 191.5,114.5C 188.167,114.5 184.833,114.5 181.5,114.5C 181.5,113.5 181.5,112.5 181.5,111.5C 178.355,112.077 176.855,114.077 177,117.5C 176.667,117.167 176.333,116.833 176,116.5C 175.612,117.428 174.945,118.095 174,118.5C 172.1,117.923 170.267,117.256 168.5,116.5C 168.028,114.469 167.028,112.802 165.5,111.5C 166.375,108.449 165.708,105.615 163.5,103C 160.132,102.457 156.799,102.624 153.5,103.5C 155.102,101.926 157.102,101.259 159.5,101.5C 160.167,101.5 160.833,101.5 161.5,101.5C 163.547,101.489 165.547,101.156 167.5,100.5C 169.626,100.73 171.293,101.73 172.5,103.5C 173.417,102.873 174.417,102.539 175.5,102.5C 176.209,103.404 177.209,103.737 178.5,103.5C 178.025,100.918 178.692,98.9179 180.5,97.5 Z"/></g>
<g><path style="opacity:1" fill="#545a5e" d="M 109.5,106.5 C 104.305,106.179 99.3054,106.513 94.5,107.5C 89.9882,107.149 85.6549,107.815 81.5,109.5C 84.1306,111.005 83.7973,111.671 80.5,111.5C 80.5,110.5 80.5,109.5 80.5,108.5C 72.4295,108.863 64.4295,108.363 56.5,107C 55.6634,105.989 55.33,104.822 55.5,103.5C 58.5331,103.132 61.1998,103.798 63.5,105.5C 75.1714,105.667 86.8381,105.5 98.5,105C 101.001,103.582 100.668,102.582 97.5,102C 99.5787,101.192 101.579,101.359 103.5,102.5C 103.291,103.086 102.957,103.586 102.5,104C 105.104,104.39 107.438,105.224 109.5,106.5 Z"/></g>
<g><path style="opacity:0.044" fill="#060a0c" d="M 145.5,105.5 C 142.026,106.525 138.36,107.192 134.5,107.5C 134.611,106.883 134.944,106.383 135.5,106C 138.817,105.502 142.15,105.335 145.5,105.5 Z"/></g>
<g><path style="opacity:1" fill="#898e92" d="M 94.5,107.5 C 99.3054,106.513 104.305,106.179 109.5,106.5C 110.167,106.5 110.833,106.5 111.5,106.5C 112.551,107.222 113.218,108.222 113.5,109.5C 107.185,108.687 100.852,108.021 94.5,107.5 Z"/></g>
<g><path style="opacity:0.977" fill="#18191b" d="M 55.5,103.5 C 55.33,104.822 55.6634,105.989 56.5,107C 64.4295,108.363 72.4295,108.863 80.5,108.5C 80.5,109.5 80.5,110.5 80.5,111.5C 83.7973,111.671 84.1306,111.005 81.5,109.5C 85.6549,107.815 89.9882,107.149 94.5,107.5C 100.852,108.021 107.185,108.687 113.5,109.5C 116.852,109.784 119.852,110.95 122.5,113C 121.167,114 119.833,115 118.5,116C 119.807,117.943 119.807,119.777 118.5,121.5C 118.67,120.178 118.337,119.011 117.5,118C 105.231,115.788 92.8981,114.122 80.5,113C 79.6433,112.311 78.9767,111.478 78.5,110.5C 71.5236,109.669 64.5236,109.169 57.5,109C 54.5897,107.827 53.9231,105.994 55.5,103.5 Z"/></g>
<g><path style="opacity:0.765" fill="#434343" d="M 204.5,100.5 C 217.316,104.953 230.316,108.619 243.5,111.5C 242.375,112.348 242.375,113.348 243.5,114.5C 232.231,111.891 221.064,108.891 210,105.5C 206.534,106.717 203.034,106.717 199.5,105.5C 199.5,105.167 199.5,104.833 199.5,104.5C 201.857,104.663 204.19,104.497 206.5,104C 205.695,102.887 205.028,101.721 204.5,100.5 Z"/></g>
<g><path style="opacity:0.339" fill="#111516" d="M 134.5,107.5 C 133.829,108.847 133.829,110.014 134.5,111C 140.787,112.107 147.12,112.607 153.5,112.5C 151.393,113.468 149.059,113.802 146.5,113.5C 145.833,113.5 145.167,113.5 144.5,113.5C 140.837,113.048 137.17,112.548 133.5,112C 131.957,109.955 132.29,108.455 134.5,107.5 Z"/></g>
<g><path style="opacity:1" fill="#545c61" d="M 121.5,105.5 C 122.239,105.369 122.906,105.536 123.5,106C 121.5,106.333 119.5,106.667 117.5,107C 119.659,107.912 121.825,108.745 124,109.5C 124.339,112.786 125.173,115.786 126.5,118.5C 127.23,117.066 128.23,115.9 129.5,115C 133.118,114.034 136.451,114.534 139.5,116.5C 141.598,116.043 143.264,115.043 144.5,113.5C 145.167,113.5 145.833,113.5 146.5,113.5C 147.248,115.332 148.248,116.999 149.5,118.5C 147.508,118.672 145.842,118.005 144.5,116.5C 141.393,118.191 138.059,119.358 134.5,120C 131.42,121.991 129.754,124.825 129.5,128.5C 128.041,128.567 126.708,128.234 125.5,127.5C 124.856,125.522 123.522,124.189 121.5,123.5C 119.415,131.232 118.081,131.232 117.5,123.5C 117.328,122.508 117.662,121.842 118.5,121.5C 119.807,119.777 119.807,117.943 118.5,116C 119.833,115 121.167,114 122.5,113C 119.852,110.95 116.852,109.784 113.5,109.5C 113.218,108.222 112.551,107.222 111.5,106.5C 114.764,105.676 118.098,105.342 121.5,105.5 Z"/></g>
<g><path style="opacity:1" fill="#13191e" d="M 159.5,109.5 C 161.114,111.075 163.114,111.741 165.5,111.5C 163.782,112.224 161.948,112.891 160,113.5C 159.506,115.134 159.34,116.801 159.5,118.5C 157.491,120 156.158,119.5 155.5,117C 157.328,115.494 157.662,113.827 156.5,112C 158.119,111.764 159.119,110.931 159.5,109.5 Z"/></g>
<g><path style="opacity:0.961" fill="#868686" d="M 243.5,111.5 C 254.029,114.463 265.029,116.296 276.5,117C 274.361,118.404 272.028,119.237 269.5,119.5C 262.856,118.86 256.356,117.527 250,115.5C 247.489,116.932 245.323,116.598 243.5,114.5C 242.375,113.348 242.375,112.348 243.5,111.5 Z"/></g>
<g><path style="opacity:1" fill="#464a4d" d="M 192.5,116.5 C 197.6,118.616 202.766,118.616 208,116.5C 210.44,117.271 212.94,117.438 215.5,117C 217.167,118.167 218.833,119.333 220.5,120.5C 219.562,121.553 218.395,122.22 217,122.5C 212.511,121.724 208.011,121.057 203.5,120.5C 203.263,121.791 203.596,122.791 204.5,123.5C 204.631,124.376 204.298,125.043 203.5,125.5C 200.242,124.583 196.909,124.249 193.5,124.5C 193.5,123.167 193.5,121.833 193.5,120.5C 187.699,120.882 182.033,121.882 176.5,123.5C 176.5,122.167 176.5,120.833 176.5,119.5C 182.16,119.511 187.493,118.511 192.5,116.5 Z"/></g>
<g><path style="opacity:1" fill="#373f45" d="M 149.5,118.5 C 150.391,119.11 151.391,119.443 152.5,119.5C 152.737,120.791 152.404,121.791 151.5,122.5C 149.059,121.244 146.726,121.244 144.5,122.5C 138.931,121.747 135.597,124.08 134.5,129.5C 133.167,129.5 131.833,129.5 130.5,129.5C 130.5,130.833 130.5,132.167 130.5,133.5C 128.947,131.615 126.947,130.615 124.5,130.5C 124.263,129.209 124.596,128.209 125.5,127.5C 126.708,128.234 128.041,128.567 129.5,128.5C 129.754,124.825 131.42,121.991 134.5,120C 138.059,119.358 141.393,118.191 144.5,116.5C 145.842,118.005 147.508,118.672 149.5,118.5 Z"/></g>
<g><path style="opacity:1" fill="#1e2428" d="M 191.5,114.5 C 192.338,114.842 192.672,115.508 192.5,116.5C 187.493,118.511 182.16,119.511 176.5,119.5C 176.5,120.833 176.5,122.167 176.5,123.5C 182.033,121.882 187.699,120.882 193.5,120.5C 193.5,121.833 193.5,123.167 193.5,124.5C 188.635,126.306 183.635,127.973 178.5,129.5C 178.167,129.5 177.833,129.5 177.5,129.5C 176.704,127.015 175.204,126.349 173,127.5C 170.39,125.038 167.223,123.538 163.5,123C 164.38,121.644 164.714,120.144 164.5,118.5C 166.483,118.843 167.817,118.176 168.5,116.5C 170.267,117.256 172.1,117.923 174,118.5C 174.945,118.095 175.612,117.428 176,116.5C 176.333,116.833 176.667,117.167 177,117.5C 176.855,114.077 178.355,112.077 181.5,111.5C 181.5,112.5 181.5,113.5 181.5,114.5C 184.833,114.5 188.167,114.5 191.5,114.5 Z"/></g>
<g><path style="opacity:1" fill="#292f34" d="M 204.5,123.5 C 207.044,124.708 208.378,126.708 208.5,129.5C 208.816,132.978 208.316,136.312 207,139.5C 207.083,136.881 207.25,134.214 207.5,131.5C 203.224,130.192 198.891,129.192 194.5,128.5C 194.5,129.833 194.5,131.167 194.5,132.5C 193.173,129.343 190.84,128.176 187.5,129C 188.993,130.156 188.826,130.99 187,131.5C 185.56,130.852 184.06,130.519 182.5,130.5C 180.901,130.768 179.568,130.434 178.5,129.5C 183.635,127.973 188.635,126.306 193.5,124.5C 196.909,124.249 200.242,124.583 203.5,125.5C 204.298,125.043 204.631,124.376 204.5,123.5 Z"/></g>
<g><path style="opacity:1" fill="#565a5d" d="M 144.5,125.5 C 145.376,125.369 146.043,125.702 146.5,126.5C 143.574,127.922 141.074,129.922 139,132.5C 138.601,132.272 138.435,131.938 138.5,131.5C 138.167,127.167 140.167,125.167 144.5,125.5 Z"/></g>
<g><path style="opacity:1" fill="#3c444b" d="M 159.5,109.5 C 159.119,110.931 158.119,111.764 156.5,112C 157.662,113.827 157.328,115.494 155.5,117C 156.158,119.5 157.491,120 159.5,118.5C 158.788,120.928 157.788,123.261 156.5,125.5C 158,127.833 159.5,130.167 161,132.5C 163.022,129.644 165.522,127.311 168.5,125.5C 169.386,126.325 169.719,127.325 169.5,128.5C 168.12,128.962 167.453,129.962 167.5,131.5C 167.887,133.274 168.553,134.941 169.5,136.5C 167.785,139.305 166.452,142.305 165.5,145.5C 164.817,145.863 164.15,146.196 163.5,146.5C 163.082,145.778 162.416,145.278 161.5,145C 162.91,144.632 163.91,143.799 164.5,142.5C 164.154,141.304 163.654,141.304 163,142.5C 162.691,141.234 162.191,140.067 161.5,139C 162.5,138.167 163.5,137.333 164.5,136.5C 164.145,135.478 163.478,134.811 162.5,134.5C 160.811,133.696 159.145,132.696 157.5,131.5C 156.914,131.709 156.414,132.043 156,132.5C 155.825,128.789 155.325,125.122 154.5,121.5C 153.818,120.757 153.151,120.091 152.5,119.5C 151.391,119.443 150.391,119.11 149.5,118.5C 148.248,116.999 147.248,115.332 146.5,113.5C 149.059,113.802 151.393,113.468 153.5,112.5C 154.804,109.431 156.804,108.431 159.5,109.5 Z"/></g>
<g><path style="opacity:1" fill="#495157" d="M 165.5,111.5 C 167.028,112.802 168.028,114.469 168.5,116.5C 167.817,118.176 166.483,118.843 164.5,118.5C 164.714,120.144 164.38,121.644 163.5,123C 167.223,123.538 170.39,125.038 173,127.5C 175.204,126.349 176.704,127.015 177.5,129.5C 175.621,128.659 173.621,128.325 171.5,128.5C 170.833,128.5 170.167,128.5 169.5,128.5C 169.719,127.325 169.386,126.325 168.5,125.5C 165.522,127.311 163.022,129.644 161,132.5C 159.5,130.167 158,127.833 156.5,125.5C 157.788,123.261 158.788,120.928 159.5,118.5C 159.34,116.801 159.506,115.134 160,113.5C 161.948,112.891 163.782,112.224 165.5,111.5 Z"/></g>
<g><path style="opacity:1" fill="#14181b" d="M 144.5,122.5 C 143.167,123.5 143.167,124.5 144.5,125.5C 140.167,125.167 138.167,127.167 138.5,131.5C 136.669,130.948 135.003,130.948 133.5,131.5C 131.15,134.059 131.15,136.393 133.5,138.5C 131.707,140.426 130.707,142.759 130.5,145.5C 128.167,145.5 125.833,145.5 123.5,145.5C 122.508,145.672 121.842,145.338 121.5,144.5C 121.972,142.469 122.972,140.802 124.5,139.5C 126.38,139.229 127.713,139.896 128.5,141.5C 129.924,139.485 130.59,137.152 130.5,134.5C 130.5,134.167 130.5,133.833 130.5,133.5C 130.5,132.167 130.5,130.833 130.5,129.5C 131.833,129.5 133.167,129.5 134.5,129.5C 135.597,124.08 138.931,121.747 144.5,122.5 Z M 128.5,141.5 C 128.5,142.5 128.5,143.5 128.5,144.5C 127.167,144.5 125.833,144.5 124.5,144.5C 124.13,140.814 125.463,139.814 128.5,141.5 Z"/></g>
<g><path style="opacity:0.812" fill="#0c0e12" d="M 151.5,122.5 C 151.821,124.048 152.821,124.715 154.5,124.5C 154.662,126.527 154.495,128.527 154,130.5C 153.329,131.252 152.496,131.586 151.5,131.5C 151.414,130.504 151.748,129.671 152.5,129C 149.833,128.333 147.167,128.333 144.5,129C 141.833,131.667 139.167,134.333 136.5,137C 140.939,138.355 145.273,139.855 149.5,141.5C 148.833,141.5 148.167,141.5 147.5,141.5C 146.833,141.5 146.167,141.5 145.5,141.5C 141.615,140.51 137.615,139.51 133.5,138.5C 131.15,136.393 131.15,134.059 133.5,131.5C 135.003,130.948 136.669,130.948 138.5,131.5C 138.435,131.938 138.601,132.272 139,132.5C 141.074,129.922 143.574,127.922 146.5,126.5C 146.043,125.702 145.376,125.369 144.5,125.5C 143.167,124.5 143.167,123.5 144.5,122.5C 146.726,121.244 149.059,121.244 151.5,122.5 Z"/></g>
<g><path style="opacity:1" fill="#20252a" d="M 152.5,119.5 C 153.151,120.091 153.818,120.757 154.5,121.5C 155.325,125.122 155.825,128.789 156,132.5C 156.414,132.043 156.914,131.709 157.5,131.5C 159.145,132.696 160.811,133.696 162.5,134.5C 162.092,135.643 161.425,136.643 160.5,137.5C 159.468,135.96 158.135,135.46 156.5,136C 157.833,137 157.833,138 156.5,139C 154.694,139.81 153.194,140.976 152,142.5C 151.235,142.43 150.735,142.097 150.5,141.5C 152.293,141.116 153.293,139.95 153.5,138C 152.726,135.846 152.059,133.679 151.5,131.5C 152.496,131.586 153.329,131.252 154,130.5C 154.495,128.527 154.662,126.527 154.5,124.5C 152.821,124.715 151.821,124.048 151.5,122.5C 152.404,121.791 152.737,120.791 152.5,119.5 Z"/></g>
<g><path style="opacity:1" fill="#4a555d" d="M 171.5,128.5 C 173.621,128.325 175.621,128.659 177.5,129.5C 177.833,129.5 178.167,129.5 178.5,129.5C 179.568,130.434 180.901,130.768 182.5,130.5C 183.785,134.002 186.452,135.835 190.5,136C 187.183,136.498 183.85,136.665 180.5,136.5C 180.5,141.167 180.5,145.833 180.5,150.5C 179.527,152.139 178.194,153.473 176.5,154.5C 176.747,147.112 176.247,139.779 175,132.5C 173.989,131.663 172.822,131.33 171.5,131.5C 171.5,130.5 171.5,129.5 171.5,128.5 Z"/></g>
<g><path style="opacity:1" fill="#101115" d="M 208.5,129.5 C 209.638,132.304 209.805,135.304 209,138.5C 206.965,142.343 204.465,145.676 201.5,148.5C 198.655,143.469 196.322,138.136 194.5,132.5C 194.5,131.167 194.5,129.833 194.5,128.5C 198.891,129.192 203.224,130.192 207.5,131.5C 207.25,134.214 207.083,136.881 207,139.5C 208.316,136.312 208.816,132.978 208.5,129.5 Z"/></g>
<g><path style="opacity:1" fill="#515459" d="M 130.5,134.5 C 130.59,137.152 129.924,139.485 128.5,141.5C 127.713,139.896 126.38,139.229 124.5,139.5C 125.038,137.883 125.371,136.216 125.5,134.5C 127.167,134.5 128.833,134.5 130.5,134.5 Z"/></g>
<g><path style="opacity:1" fill="#272d32" d="M 117.5,123.5 C 118.081,131.232 119.415,131.232 121.5,123.5C 123.522,124.189 124.856,125.522 125.5,127.5C 124.596,128.209 124.263,129.209 124.5,130.5C 126.947,130.615 128.947,131.615 130.5,133.5C 130.5,133.833 130.5,134.167 130.5,134.5C 128.833,134.5 127.167,134.5 125.5,134.5C 125.371,136.216 125.038,137.883 124.5,139.5C 122.972,140.802 121.972,142.469 121.5,144.5C 120.153,145.171 118.986,145.171 118,144.5C 117.662,141.734 118.162,139.067 119.5,136.5C 119.167,135.5 118.833,134.5 118.5,133.5C 117.571,132.45 116.905,132.45 116.5,133.5C 115.903,133.265 115.57,132.765 115.5,132C 116.035,129.004 116.702,126.171 117.5,123.5 Z"/></g>
<g><path style="opacity:1" fill="#5d6971" d="M 194.5,132.5 C 196.322,138.136 198.655,143.469 201.5,148.5C 201.5,148.833 201.5,149.167 201.5,149.5C 200.448,149.649 199.448,149.483 198.5,149C 196.65,145.638 194.317,142.638 191.5,140C 189.559,139.257 187.726,139.424 186,140.5C 184.684,137.972 183.517,137.972 182.5,140.5C 183.799,143.699 183.799,146.865 182.5,150C 183.571,150.852 184.571,151.685 185.5,152.5C 183.302,152.88 181.635,152.213 180.5,150.5C 180.5,145.833 180.5,141.167 180.5,136.5C 183.85,136.665 187.183,136.498 190.5,136C 186.452,135.835 183.785,134.002 182.5,130.5C 184.06,130.519 185.56,130.852 187,131.5C 188.826,130.99 188.993,130.156 187.5,129C 190.84,128.176 193.173,129.343 194.5,132.5 Z"/></g>
<g><path style="opacity:1" fill="#89939a" d="M 169.5,128.5 C 170.167,128.5 170.833,128.5 171.5,128.5C 171.5,129.5 171.5,130.5 171.5,131.5C 172.822,131.33 173.989,131.663 175,132.5C 176.247,139.779 176.747,147.112 176.5,154.5C 176.167,157.833 175.833,161.167 175.5,164.5C 174.59,166.019 173.757,167.685 173,169.5C 172.814,166.964 172.314,164.631 171.5,162.5C 171.634,160.708 171.301,159.042 170.5,157.5C 168.038,153.695 168.704,150.361 172.5,147.5C 173.228,145.845 173.395,144.179 173,142.5C 172.333,141.167 171.667,141.167 171,142.5C 169.162,146.176 167.329,149.842 165.5,153.5C 163.829,151.49 163.162,149.157 163.5,146.5C 164.15,146.196 164.817,145.863 165.5,145.5C 166.452,142.305 167.785,139.305 169.5,136.5C 168.553,134.941 167.887,133.274 167.5,131.5C 167.453,129.962 168.12,128.962 169.5,128.5 Z"/></g>
<g><path style="opacity:0.017" fill="#000000" d="M 115.5,140.5 C 115.5,141.833 115.5,143.167 115.5,144.5C 113.5,144.5 111.5,144.5 109.5,144.5C 110.919,143.549 112.585,143.216 114.5,143.5C 114.263,142.209 114.596,141.209 115.5,140.5 Z"/></g>
<g><path style="opacity:1" fill="#485058" d="M 133.5,138.5 C 137.615,139.51 141.615,140.51 145.5,141.5C 145.714,143.144 145.38,144.644 144.5,146C 139.748,146.773 135.081,146.607 130.5,145.5C 130.707,142.759 131.707,140.426 133.5,138.5 Z"/></g>
<g><path style="opacity:1" fill="#657681" d="M 201.5,149.5 C 201.5,150.167 201.5,150.833 201.5,151.5C 200.359,153.229 198.693,154.229 196.5,154.5C 192.755,154.014 189.088,153.348 185.5,152.5C 184.571,151.685 183.571,150.852 182.5,150C 183.799,146.865 183.799,143.699 182.5,140.5C 183.517,137.972 184.684,137.972 186,140.5C 187.726,139.424 189.559,139.257 191.5,140C 194.317,142.638 196.65,145.638 198.5,149C 199.448,149.483 200.448,149.649 201.5,149.5 Z"/></g>
<g><path style="opacity:1" fill="#363f46" d="M 162.5,134.5 C 163.478,134.811 164.145,135.478 164.5,136.5C 163.5,137.333 162.5,138.167 161.5,139C 162.191,140.067 162.691,141.234 163,142.5C 163.654,141.304 164.154,141.304 164.5,142.5C 163.91,143.799 162.91,144.632 161.5,145C 162.416,145.278 163.082,145.778 163.5,146.5C 159.991,148.343 158.657,151.343 159.5,155.5C 158.566,154.432 158.232,153.099 158.5,151.5C 158.649,148.035 156.982,146.035 153.5,145.5C 152.749,146.376 152.249,147.376 152,148.5C 150.89,146.963 149.39,146.297 147.5,146.5C 147.5,144.833 147.5,143.167 147.5,141.5C 148.167,141.5 148.833,141.5 149.5,141.5C 149.833,141.5 150.167,141.5 150.5,141.5C 150.735,142.097 151.235,142.43 152,142.5C 153.194,140.976 154.694,139.81 156.5,139C 157.833,138 157.833,137 156.5,136C 158.135,135.46 159.468,135.96 160.5,137.5C 161.425,136.643 162.092,135.643 162.5,134.5 Z"/></g>
<g><path style="opacity:1" fill="#575c60" d="M 121.5,144.5 C 121.842,145.338 122.508,145.672 123.5,145.5C 125.631,146.314 127.964,146.814 130.5,147C 129.167,147.667 127.833,148.333 126.5,149C 119.484,149.075 112.484,148.575 105.5,147.5C 102.921,147.86 100.421,148.526 98,149.5C 95.8676,149.323 94.8676,148.323 95,146.5C 97.4356,145.645 99.9356,144.979 102.5,144.5C 104.626,144.15 106.959,144.15 109.5,144.5C 111.5,144.5 113.5,144.5 115.5,144.5C 115.5,143.167 115.5,141.833 115.5,140.5C 116.332,138.001 116.665,135.668 116.5,133.5C 116.905,132.45 117.571,132.45 118.5,133.5C 118.833,134.5 119.167,135.5 119.5,136.5C 118.162,139.067 117.662,141.734 118,144.5C 118.986,145.171 120.153,145.171 121.5,144.5 Z"/></g>
<g><path style="opacity:1" fill="#2e353a" d="M 145.5,141.5 C 146.167,141.5 146.833,141.5 147.5,141.5C 147.5,143.167 147.5,144.833 147.5,146.5C 149.39,146.297 150.89,146.963 152,148.5C 152.249,147.376 152.749,146.376 153.5,145.5C 156.982,146.035 158.649,148.035 158.5,151.5C 157.844,152.278 157.011,152.944 156,153.5C 153.79,151.889 151.29,151.222 148.5,151.5C 147.167,151.5 145.833,151.5 144.5,151.5C 144.5,153.167 144.5,154.833 144.5,156.5C 144.167,156.5 143.833,156.5 143.5,156.5C 143.5,154.833 143.5,153.167 143.5,151.5C 129.802,151.197 116.135,150.697 102.5,150C 104.715,150.17 106.715,150.837 108.5,152C 107.906,152.464 107.239,152.631 106.5,152.5C 103.976,151.2 101.309,151.2 98.5,152.5C 97.1667,154.833 97.1667,157.167 98.5,159.5C 96.9547,160.452 95.288,160.785 93.5,160.5C 94.6602,159.735 95.6602,158.735 96.5,157.5C 94.3906,153.734 93.5572,149.734 94,145.5C 96.774,143.448 99.6073,143.114 102.5,144.5C 99.9356,144.979 97.4356,145.645 95,146.5C 94.8676,148.323 95.8676,149.323 98,149.5C 100.421,148.526 102.921,147.86 105.5,147.5C 112.484,148.575 119.484,149.075 126.5,149C 127.833,148.333 129.167,147.667 130.5,147C 127.964,146.814 125.631,146.314 123.5,145.5C 125.833,145.5 128.167,145.5 130.5,145.5C 135.081,146.607 139.748,146.773 144.5,146C 145.38,144.644 145.714,143.144 145.5,141.5 Z"/></g>
<g><path style="opacity:0.904" fill="#15191d" d="M 143.5,156.5 C 142.526,161.064 142.526,165.564 143.5,170C 141.073,172.252 140.073,175.086 140.5,178.5C 139.833,178.5 139.5,178.167 139.5,177.5C 139.768,175.901 139.434,174.568 138.5,173.5C 136.351,167.627 136.018,161.627 137.5,155.5C 136.5,155.5 135.5,155.5 134.5,155.5C 134.186,158.947 133.352,162.28 132,165.5C 131.751,164.376 131.251,163.376 130.5,162.5C 129.943,164.332 128.943,165.665 127.5,166.5C 127.963,163.518 128.296,160.518 128.5,157.5C 128.167,157.5 127.833,157.5 127.5,157.5C 127.5,156.167 127.5,154.833 127.5,153.5C 125.801,153.34 124.134,153.506 122.5,154C 121.953,156.367 120.953,158.533 119.5,160.5C 119.709,161.086 120.043,161.586 120.5,162C 119.099,162.41 117.766,162.91 116.5,163.5C 116.167,163.5 115.833,163.5 115.5,163.5C 119.769,154.092 116.769,150.759 106.5,153.5C 106.5,156.833 106.5,160.167 106.5,163.5C 106.167,163.5 105.833,163.5 105.5,163.5C 105.185,159.629 105.518,155.962 106.5,152.5C 107.239,152.631 107.906,152.464 108.5,152C 106.715,150.837 104.715,150.17 102.5,150C 116.135,150.697 129.802,151.197 143.5,151.5C 143.5,153.167 143.5,154.833 143.5,156.5 Z M 128.5,157.5 C 128.369,156.624 128.702,155.957 129.5,155.5C 130.873,157.808 130.54,158.475 128.5,157.5 Z"/></g>
<g><path style="opacity:1" fill="#49545a" d="M 170.5,157.5 C 169.244,157.096 168.077,156.429 167,155.5C 164.702,156.961 162.535,158.628 160.5,160.5C 159.707,159.645 160.04,158.811 161.5,158C 160.934,157.005 160.267,156.172 159.5,155.5C 158.657,151.343 159.991,148.343 163.5,146.5C 163.162,149.157 163.829,151.49 165.5,153.5C 167.329,149.842 169.162,146.176 171,142.5C 171.667,141.167 172.333,141.167 173,142.5C 173.395,144.179 173.228,145.845 172.5,147.5C 168.704,150.361 168.038,153.695 170.5,157.5 Z"/></g>
<g><path style="opacity:0.294" fill="#131618" d="M 201.5,148.5 C 202.22,151.06 203.887,152.893 206.5,154C 214.601,155.499 222.601,156.666 230.5,157.5C 221.13,157.271 211.797,156.605 202.5,155.5C 203.471,154.038 203.138,152.705 201.5,151.5C 201.5,150.833 201.5,150.167 201.5,149.5C 201.5,149.167 201.5,148.833 201.5,148.5 Z"/></g>
<g><path style="opacity:1" fill="#4f5559" d="M 127.5,157.5 C 126.169,158.787 125.169,160.953 124.5,164C 121.633,164.801 118.966,164.634 116.5,163.5C 117.766,162.91 119.099,162.41 120.5,162C 120.043,161.586 119.709,161.086 119.5,160.5C 120.953,158.533 121.953,156.367 122.5,154C 124.134,153.506 125.801,153.34 127.5,153.5C 127.5,154.833 127.5,156.167 127.5,157.5 Z"/></g>
<g><path style="opacity:1" fill="#3a454b" d="M 148.5,151.5 C 151.29,151.222 153.79,151.889 156,153.5C 157.011,152.944 157.844,152.278 158.5,151.5C 158.232,153.099 158.566,154.432 159.5,155.5C 160.267,156.172 160.934,157.005 161.5,158C 160.04,158.811 159.707,159.645 160.5,160.5C 162.535,158.628 164.702,156.961 167,155.5C 168.077,156.429 169.244,157.096 170.5,157.5C 171.301,159.042 171.634,160.708 171.5,162.5C 171.817,165.572 171.484,168.572 170.5,171.5C 169.824,170.398 169.158,169.398 168.5,168.5C 166.451,168.294 166.117,167.461 167.5,166C 166.069,165.535 164.903,164.701 164,163.5C 162.383,164.536 162.216,165.703 163.5,167C 162.484,167.519 161.818,168.353 161.5,169.5C 162.135,170.966 162.969,172.3 164,173.5C 164.333,173.167 164.667,172.833 165,172.5C 170.099,175.854 169.599,177.187 163.5,176.5C 162.448,176.649 161.448,176.483 160.5,176C 156.953,172.51 155.786,168.343 157,163.5C 160.309,162.479 160.309,161.479 157,160.5C 154.976,162.785 152.809,162.785 150.5,160.5C 151.398,157.25 150.732,154.25 148.5,151.5 Z"/></g>
<g><path style="opacity:1" fill="#364148" d="M 180.5,150.5 C 181.635,152.213 183.302,152.88 185.5,152.5C 189.088,153.348 192.755,154.014 196.5,154.5C 198.693,154.229 200.359,153.229 201.5,151.5C 203.138,152.705 203.471,154.038 202.5,155.5C 201.662,155.842 201.328,156.508 201.5,157.5C 200.522,157.811 199.855,158.478 199.5,159.5C 200.891,161.936 200.391,162.602 198,161.5C 197.326,162.578 196.326,163.245 195,163.5C 193.091,162.844 191.258,162.344 189.5,162C 189.167,162.333 188.833,162.667 188.5,163C 191.032,163.619 193.365,164.619 195.5,166C 193.866,166.494 192.199,166.66 190.5,166.5C 185.5,165.833 180.5,165.167 175.5,164.5C 175.833,161.167 176.167,157.833 176.5,154.5C 178.194,153.473 179.527,152.139 180.5,150.5 Z"/></g>
<g><path style="opacity:1" fill="#222426" d="M 231.5,161.5 C 227.551,161.693 227.551,162.193 231.5,163C 229.473,163.498 227.473,163.331 225.5,162.5C 223.283,162.878 221.283,163.545 219.5,164.5C 219.663,166.857 219.497,169.19 219,171.5C 217.387,165.189 214.387,164.189 210,168.5C 208.833,166.833 207.667,165.167 206.5,163.5C 205.893,163.624 205.56,163.957 205.5,164.5C 204.199,163.116 204.199,161.616 205.5,160C 208.5,159.667 211.5,159.333 214.5,159C 215,158.5 215.5,158 216,157.5C 219.405,160.475 223.238,161.141 227.5,159.5C 229.355,159.34 230.688,160.007 231.5,161.5 Z"/></g>
<g><path style="opacity:1" fill="#565f66" d="M 148.5,151.5 C 150.732,154.25 151.398,157.25 150.5,160.5C 152.809,162.785 154.976,162.785 157,160.5C 160.309,161.479 160.309,162.479 157,163.5C 155.786,168.343 156.953,172.51 160.5,176C 161.448,176.483 162.448,176.649 163.5,176.5C 164.919,177.451 166.585,177.784 168.5,177.5C 168.5,178.833 168.5,180.167 168.5,181.5C 170.5,181.833 172.5,182.167 174.5,182.5C 174.611,183.117 174.944,183.617 175.5,184C 173.866,184.494 172.199,184.66 170.5,184.5C 169.486,183.326 168.153,182.66 166.5,182.5C 163.373,179.102 159.707,176.435 155.5,174.5C 152.198,168.232 148.531,162.232 144.5,156.5C 144.5,154.833 144.5,153.167 144.5,151.5C 145.833,151.5 147.167,151.5 148.5,151.5 Z"/></g>
<g><path style="opacity:1" fill="#4f5459" d="M 106.5,152.5 C 105.518,155.962 105.185,159.629 105.5,163.5C 103.813,164.918 101.98,166.251 100,167.5C 99.8142,169.9 99.3142,172.234 98.5,174.5C 96.2612,173.212 93.9279,172.212 91.5,171.5C 89.615,169.205 89.115,166.538 90,163.5C 90.4224,161.574 91.5891,160.574 93.5,160.5C 95.288,160.785 96.9547,160.452 98.5,159.5C 97.1667,157.167 97.1667,154.833 98.5,152.5C 101.309,151.2 103.976,151.2 106.5,152.5 Z"/></g>
<g><path style="opacity:1" fill="#202223" d="M 230.5,157.5 C 232.857,157.337 235.19,157.503 237.5,158C 239.32,158.2 240.653,159.034 241.5,160.5C 241.5,164.833 241.5,169.167 241.5,173.5C 241.167,173.5 240.833,173.5 240.5,173.5C 240.607,171.621 240.107,171.288 239,172.5C 238.692,171.692 238.192,171.025 237.5,170.5C 236.281,171.263 235.281,172.263 234.5,173.5C 232.784,172.451 231.451,171.118 230.5,169.5C 230.714,167.856 230.38,166.356 229.5,165C 226.183,164.502 222.85,164.335 219.5,164.5C 221.283,163.545 223.283,162.878 225.5,162.5C 227.473,163.331 229.473,163.498 231.5,163C 227.551,162.193 227.551,161.693 231.5,161.5C 233.933,163.05 236.433,163.384 239,162.5C 239.483,161.552 239.649,160.552 239.5,159.5C 236.171,159.785 233.171,159.118 230.5,157.5 Z"/></g>
<g><path style="opacity:1" fill="#3a3f43" d="M 138.5,173.5 C 136.516,173.617 134.85,172.95 133.5,171.5C 132.719,172.729 132.219,174.062 132,175.5C 131.178,172.883 130.678,170.216 130.5,167.5C 125.888,166.91 122.555,168.576 120.5,172.5C 121,173.5 121.5,174.5 122,175.5C 124.52,176.207 127.02,177.04 129.5,178C 127.19,178.497 124.857,178.663 122.5,178.5C 120.033,178.245 118.033,177.245 116.5,175.5C 115.829,172.291 116.829,169.457 119.5,167C 122.146,166.503 124.813,166.336 127.5,166.5C 128.943,165.665 129.943,164.332 130.5,162.5C 131.251,163.376 131.751,164.376 132,165.5C 133.352,162.28 134.186,158.947 134.5,155.5C 135.5,155.5 136.5,155.5 137.5,155.5C 136.018,161.627 136.351,167.627 138.5,173.5 Z"/></g>
<g><path style="opacity:1" fill="#33393e" d="M 202.5,155.5 C 211.797,156.605 221.13,157.271 230.5,157.5C 233.171,159.118 236.171,159.785 239.5,159.5C 239.649,160.552 239.483,161.552 239,162.5C 236.433,163.384 233.933,163.05 231.5,161.5C 230.688,160.007 229.355,159.34 227.5,159.5C 223.238,161.141 219.405,160.475 216,157.5C 215.5,158 215,158.5 214.5,159C 211.5,159.333 208.5,159.667 205.5,160C 204.199,161.616 204.199,163.116 205.5,164.5C 206.043,167.218 206.709,169.885 207.5,172.5C 207.631,173.376 207.298,174.043 206.5,174.5C 203.936,170.883 200.603,168.216 196.5,166.5C 198.396,165.534 200.396,165.201 202.5,165.5C 202.599,162.763 202.265,160.096 201.5,157.5C 201.328,156.508 201.662,155.842 202.5,155.5 Z"/></g>
<g><path style="opacity:1" fill="#313b41" d="M 168.5,168.5 C 168.317,170.936 168.984,173.103 170.5,175C 173.627,175.392 176.627,176.225 179.5,177.5C 180.417,176.873 181.417,176.539 182.5,176.5C 183.478,176.811 184.145,177.478 184.5,178.5C 182.587,179.051 180.587,179.218 178.5,179C 176.681,179.74 175.348,180.907 174.5,182.5C 172.5,182.167 170.5,181.833 168.5,181.5C 168.5,180.167 168.5,178.833 168.5,177.5C 166.585,177.784 164.919,177.451 163.5,176.5C 169.599,177.187 170.099,175.854 165,172.5C 164.667,172.833 164.333,173.167 164,173.5C 162.969,172.3 162.135,170.966 161.5,169.5C 161.818,168.353 162.484,167.519 163.5,167C 162.216,165.703 162.383,164.536 164,163.5C 164.903,164.701 166.069,165.535 167.5,166C 166.117,167.461 166.451,168.294 168.5,168.5 Z"/></g>
<g><path style="opacity:1" fill="#4e565c" d="M 171.5,162.5 C 172.314,164.631 172.814,166.964 173,169.5C 173.757,167.685 174.59,166.019 175.5,164.5C 180.5,165.167 185.5,165.833 190.5,166.5C 190.423,167.75 189.756,168.583 188.5,169C 189.579,169.956 190.745,170.789 192,171.5C 193.144,169.083 194.81,168.416 197,169.5C 197.519,171.489 196.686,172.489 194.5,172.5C 191.813,172.336 189.146,172.503 186.5,173C 184.676,173.66 183.343,174.827 182.5,176.5C 181.417,176.539 180.417,176.873 179.5,177.5C 176.627,176.225 173.627,175.392 170.5,175C 168.984,173.103 168.317,170.936 168.5,168.5C 169.158,169.398 169.824,170.398 170.5,171.5C 171.484,168.572 171.817,165.572 171.5,162.5 Z"/></g>
<g><path style="opacity:1" fill="#40474d" d="M 201.5,157.5 C 202.265,160.096 202.599,162.763 202.5,165.5C 200.396,165.201 198.396,165.534 196.5,166.5C 200.603,168.216 203.936,170.883 206.5,174.5C 207.298,174.043 207.631,173.376 207.5,172.5C 209.288,172.215 210.955,172.548 212.5,173.5C 210.009,174.541 210.009,175.374 212.5,176C 215.257,175.777 217.924,175.944 220.5,176.5C 218.552,177.131 216.719,178.131 215,179.5C 215.649,181.832 215.482,184.166 214.5,186.5C 213.333,186.833 212.167,187.167 211,187.5C 209.319,187.392 208.152,186.725 207.5,185.5C 209.138,183.045 208.805,181.045 206.5,179.5C 206.116,177.707 204.95,176.707 203,176.5C 199.159,178.879 195.326,178.712 191.5,176C 193.256,175.798 194.922,175.298 196.5,174.5C 195.757,173.818 195.091,173.151 194.5,172.5C 196.686,172.489 197.519,171.489 197,169.5C 194.81,168.416 193.144,169.083 192,171.5C 190.745,170.789 189.579,169.956 188.5,169C 189.756,168.583 190.423,167.75 190.5,166.5C 192.199,166.66 193.866,166.494 195.5,166C 193.365,164.619 191.032,163.619 188.5,163C 188.833,162.667 189.167,162.333 189.5,162C 191.258,162.344 193.091,162.844 195,163.5C 196.326,163.245 197.326,162.578 198,161.5C 200.391,162.602 200.891,161.936 199.5,159.5C 199.855,158.478 200.522,157.811 201.5,157.5 Z"/></g>
<g><path style="opacity:1" fill="#3a444a" d="M 143.5,156.5 C 143.833,156.5 144.167,156.5 144.5,156.5C 148.531,162.232 152.198,168.232 155.5,174.5C 155.189,175.478 154.522,176.145 153.5,176.5C 152.742,175.189 151.742,174.689 150.5,175C 152.167,176.667 153.833,178.333 155.5,180C 154.285,182.096 153.451,181.929 153,179.5C 150.863,181.321 150.03,183.654 150.5,186.5C 149.833,186.5 149.167,186.5 148.5,186.5C 144.833,184.833 142.167,182.167 140.5,178.5C 140.073,175.086 141.073,172.252 143.5,170C 142.526,165.564 142.526,161.064 143.5,156.5 Z"/></g>
<g><path style="opacity:1" fill="#0f1012" d="M 219.5,164.5 C 222.85,164.335 226.183,164.502 229.5,165C 230.38,166.356 230.714,167.856 230.5,169.5C 229.751,168.469 229.085,167.302 228.5,166C 225.854,165.503 223.187,165.336 220.5,165.5C 220.244,169.269 220.577,172.936 221.5,176.5C 221.167,176.5 220.833,176.5 220.5,176.5C 217.924,175.944 215.257,175.777 212.5,176C 210.009,175.374 210.009,174.541 212.5,173.5C 210.955,172.548 209.288,172.215 207.5,172.5C 206.709,169.885 206.043,167.218 205.5,164.5C 205.56,163.957 205.893,163.624 206.5,163.5C 207.667,165.167 208.833,166.833 210,168.5C 214.387,164.189 217.387,165.189 219,171.5C 219.497,169.19 219.663,166.857 219.5,164.5 Z"/></g>
<g><path style="opacity:1" fill="#191d1f" d="M 127.5,157.5 C 127.833,157.5 128.167,157.5 128.5,157.5C 128.296,160.518 127.963,163.518 127.5,166.5C 124.813,166.336 122.146,166.503 119.5,167C 116.829,169.457 115.829,172.291 116.5,175.5C 114.906,175.08 113.406,174.414 112,173.5C 104.727,177.785 97.8939,177.118 91.5,171.5C 93.9279,172.212 96.2612,173.212 98.5,174.5C 99.3142,172.234 99.8142,169.9 100,167.5C 101.98,166.251 103.813,164.918 105.5,163.5C 105.833,163.5 106.167,163.5 106.5,163.5C 107.807,164.153 109.14,164.82 110.5,165.5C 112.075,164.544 113.742,163.877 115.5,163.5C 115.833,163.5 116.167,163.5 116.5,163.5C 118.966,164.634 121.633,164.801 124.5,164C 125.169,160.953 126.169,158.787 127.5,157.5 Z"/></g>
<g><path style="opacity:0.859" fill="#121518" d="M 138.5,173.5 C 139.434,174.568 139.768,175.901 139.5,177.5C 138.143,176.315 136.643,175.315 135,174.5C 131.844,179.318 127.677,180.652 122.5,178.5C 124.857,178.663 127.19,178.497 129.5,178C 127.02,177.04 124.52,176.207 122,175.5C 121.5,174.5 121,173.5 120.5,172.5C 122.555,168.576 125.888,166.91 130.5,167.5C 130.678,170.216 131.178,172.883 132,175.5C 132.219,174.062 132.719,172.729 133.5,171.5C 134.85,172.95 136.516,173.617 138.5,173.5 Z"/></g>
<g><path style="opacity:1" fill="#0f1113" d="M 230.5,169.5 C 231.451,171.118 232.784,172.451 234.5,173.5C 235.281,172.263 236.281,171.263 237.5,170.5C 238.192,171.025 238.692,171.692 239,172.5C 240.107,171.288 240.607,171.621 240.5,173.5C 240.461,174.583 240.127,175.583 239.5,176.5C 237.257,177.474 234.924,177.808 232.5,177.5C 232.387,180.049 233.054,182.382 234.5,184.5C 233.91,185.799 232.91,186.632 231.5,187C 232.056,187.383 232.389,187.883 232.5,188.5C 230.184,187.84 227.851,187.173 225.5,186.5C 222.391,188.387 219.058,189.721 215.5,190.5C 217.827,188.97 220.16,187.303 222.5,185.5C 223.802,184.193 225.135,184.193 226.5,185.5C 226.833,185 227.167,184.5 227.5,184C 226.929,182.401 225.929,181.234 224.5,180.5C 225.043,180.44 225.376,180.107 225.5,179.5C 223.668,178.943 222.335,177.943 221.5,176.5C 222.117,176.611 222.617,176.944 223,177.5C 225.034,175.968 227.201,174.635 229.5,173.5C 230.429,172.311 230.762,170.978 230.5,169.5 Z"/></g>
<g><path style="opacity:1" fill="#343639" d="M 240.5,173.5 C 240.833,173.5 241.167,173.5 241.5,173.5C 241.261,175.467 241.594,177.301 242.5,179C 235.855,179.957 234.188,183.29 237.5,189C 236.552,189.483 235.552,189.649 234.5,189.5C 233.508,189.672 232.842,189.338 232.5,188.5C 232.389,187.883 232.056,187.383 231.5,187C 232.91,186.632 233.91,185.799 234.5,184.5C 233.054,182.382 232.387,180.049 232.5,177.5C 234.924,177.808 237.257,177.474 239.5,176.5C 240.127,175.583 240.461,174.583 240.5,173.5 Z"/></g>
<g><path style="opacity:1" fill="#151a1e" d="M 194.5,172.5 C 195.091,173.151 195.757,173.818 196.5,174.5C 194.922,175.298 193.256,175.798 191.5,176C 195.326,178.712 199.159,178.879 203,176.5C 204.95,176.707 206.116,177.707 206.5,179.5C 205.883,179.389 205.383,179.056 205,178.5C 201.085,180.931 197.085,180.931 193,178.5C 190.12,180.208 187.453,181.541 185,182.5C 182.416,181.139 180.416,181.805 179,184.5C 178.023,186.74 177.523,189.073 177.5,191.5C 175.162,193.04 172.495,193.706 169.5,193.5C 169.461,192.417 169.127,191.417 168.5,190.5C 169.025,189.808 169.692,189.308 170.5,189C 169.587,187.586 169.587,186.086 170.5,184.5C 172.199,184.66 173.866,184.494 175.5,184C 174.944,183.617 174.611,183.117 174.5,182.5C 175.348,180.907 176.681,179.74 178.5,179C 180.587,179.218 182.587,179.051 184.5,178.5C 184.145,177.478 183.478,176.811 182.5,176.5C 183.343,174.827 184.676,173.66 186.5,173C 189.146,172.503 191.813,172.336 194.5,172.5 Z"/></g>
<g><path style="opacity:1" fill="#3a4045" d="M 159.5,192.5 C 156.407,194.215 153.074,195.548 149.5,196.5C 147.3,195.675 146.966,194.342 148.5,192.5C 149.641,190.451 149.641,188.451 148.5,186.5C 149.167,186.5 149.833,186.5 150.5,186.5C 151.29,185.391 151.79,184.058 152,182.5C 152.414,182.957 152.914,183.291 153.5,183.5C 154.62,182.167 155.953,181.667 157.5,182C 157.167,182.333 156.833,182.667 156.5,183C 158.181,185.344 159.848,187.677 161.5,190C 161.361,191.301 160.695,192.134 159.5,192.5 Z"/></g>
<g><path style="opacity:1" fill="#323a41" d="M 155.5,174.5 C 159.707,176.435 163.373,179.102 166.5,182.5C 165.19,184.148 163.857,185.814 162.5,187.5C 166.723,190.518 166.389,192.518 161.5,193.5C 160.508,193.672 159.842,193.338 159.5,192.5C 160.695,192.134 161.361,191.301 161.5,190C 159.848,187.677 158.181,185.344 156.5,183C 156.833,182.667 157.167,182.333 157.5,182C 155.953,181.667 154.62,182.167 153.5,183.5C 152.914,183.291 152.414,182.957 152,182.5C 151.79,184.058 151.29,185.391 150.5,186.5C 150.03,183.654 150.863,181.321 153,179.5C 153.451,181.929 154.285,182.096 155.5,180C 153.833,178.333 152.167,176.667 150.5,175C 151.742,174.689 152.742,175.189 153.5,176.5C 154.522,176.145 155.189,175.478 155.5,174.5 Z"/></g>
<g><path style="opacity:1" fill="#444547" d="M 224.5,180.5 C 225.929,181.234 226.929,182.401 227.5,184C 227.167,184.5 226.833,185 226.5,185.5C 225.135,184.193 223.802,184.193 222.5,185.5C 222.201,183.396 222.534,181.396 223.5,179.5C 224.107,179.624 224.44,179.957 224.5,180.5 Z"/></g>
<g><path style="opacity:1" fill="#17181b" d="M 220.5,176.5 C 220.833,176.5 221.167,176.5 221.5,176.5C 222.335,177.943 223.668,178.943 225.5,179.5C 225.376,180.107 225.043,180.44 224.5,180.5C 224.44,179.957 224.107,179.624 223.5,179.5C 222.534,181.396 222.201,183.396 222.5,185.5C 220.16,187.303 217.827,188.97 215.5,190.5C 212.822,189.382 210.155,189.382 207.5,190.5C 205.541,190.125 203.707,189.459 202,188.5C 200.413,189.727 199.079,189.394 198,187.5C 197.283,188.044 196.783,188.711 196.5,189.5C 195.778,189.918 195.278,190.584 195,191.5C 194.426,187.436 192.26,184.769 188.5,183.5C 190.737,182.551 193.071,181.884 195.5,181.5C 195.5,182.5 195.5,183.5 195.5,184.5C 199.569,183.716 203.069,185.049 206,188.5C 206.232,187.263 206.732,186.263 207.5,185.5C 208.152,186.725 209.319,187.392 211,187.5C 212.167,187.167 213.333,186.833 214.5,186.5C 215.482,184.166 215.649,181.832 215,179.5C 216.719,178.131 218.552,177.131 220.5,176.5 Z"/></g>
<g><path style="opacity:1" fill="#080b0f" d="M 206.5,179.5 C 208.805,181.045 209.138,183.045 207.5,185.5C 206.732,186.263 206.232,187.263 206,188.5C 203.069,185.049 199.569,183.716 195.5,184.5C 195.5,183.5 195.5,182.5 195.5,181.5C 193.071,181.884 190.737,182.551 188.5,183.5C 187.178,183.33 186.011,183.663 185,184.5C 183.295,186.577 182.128,188.91 181.5,191.5C 180.167,192.833 178.833,192.833 177.5,191.5C 177.523,189.073 178.023,186.74 179,184.5C 180.416,181.805 182.416,181.139 185,182.5C 187.453,181.541 190.12,180.208 193,178.5C 197.085,180.931 201.085,180.931 205,178.5C 205.383,179.056 205.883,179.389 206.5,179.5 Z"/></g>
<g><path style="opacity:1" fill="#141517" d="M 241.5,160.5 C 242.327,165.985 242.827,171.652 243,177.5C 246.336,180.434 247.336,184.1 246,188.5C 244.178,190.045 242.011,190.712 239.5,190.5C 237.631,190.493 235.964,190.16 234.5,189.5C 235.552,189.649 236.552,189.483 237.5,189C 234.188,183.29 235.855,179.957 242.5,179C 241.594,177.301 241.261,175.467 241.5,173.5C 241.5,169.167 241.5,164.833 241.5,160.5 Z"/></g>
<g><path style="opacity:1" fill="#2e3337" d="M 166.5,182.5 C 168.153,182.66 169.486,183.326 170.5,184.5C 169.587,186.086 169.587,187.586 170.5,189C 169.692,189.308 169.025,189.808 168.5,190.5C 169.127,191.417 169.461,192.417 169.5,193.5C 169.414,194.496 169.748,195.329 170.5,196C 172.421,196.36 174.088,197.194 175.5,198.5C 177.638,196.218 179.971,195.551 182.5,196.5C 182.762,197.978 182.429,199.311 181.5,200.5C 178.783,200.689 175.949,200.356 173,199.5C 171.832,200.509 170.665,201.509 169.5,202.5C 168.669,200.527 168.502,198.527 169,196.5C 166.865,194.722 164.365,194.055 161.5,194.5C 161.5,194.167 161.5,193.833 161.5,193.5C 166.389,192.518 166.723,190.518 162.5,187.5C 163.857,185.814 165.19,184.148 166.5,182.5 Z"/></g>
<g><path style="opacity:0.996" fill="#1d1d1e" d="M 188.5,183.5 C 192.26,184.769 194.426,187.436 195,191.5C 195.278,190.584 195.778,189.918 196.5,189.5C 200.932,191.92 205.599,194.754 210.5,198C 206.251,199.126 201.918,199.792 197.5,200C 199.743,201.136 202.076,201.97 204.5,202.5C 205.043,202.56 205.376,202.893 205.5,203.5C 203.862,207.98 203.029,212.647 203,217.5C 200.805,221.872 197.805,222.539 194,219.5C 192.331,215.824 191.164,211.991 190.5,208C 190.57,207.235 190.903,206.735 191.5,206.5C 192.634,204.034 192.801,201.367 192,198.5C 191.25,197.874 190.416,197.374 189.5,197C 192.37,189.741 190.37,188.575 183.5,193.5C 182.478,193.145 181.811,192.478 181.5,191.5C 182.128,188.91 183.295,186.577 185,184.5C 186.011,183.663 187.178,183.33 188.5,183.5 Z"/></g>
<g><path style="opacity:1" fill="#151418" d="M 215.5,190.5 C 215.322,193.216 214.822,195.883 214,198.5C 210.541,199.592 207.374,200.925 204.5,202.5C 202.076,201.97 199.743,201.136 197.5,200C 201.918,199.792 206.251,199.126 210.5,198C 205.599,194.754 200.932,191.92 196.5,189.5C 196.783,188.711 197.283,188.044 198,187.5C 199.079,189.394 200.413,189.727 202,188.5C 203.707,189.459 205.541,190.125 207.5,190.5C 210.155,189.382 212.822,189.382 215.5,190.5 Z"/></g>
<g><path style="opacity:0.98" fill="#0c0d11" d="M 191.5,206.5 C 190.185,204.865 190.185,203.199 191.5,201.5C 190.38,199.404 188.88,199.07 187,200.5C 186.978,204.325 185.478,207.325 182.5,209.5C 182.328,207.508 182.995,205.842 184.5,204.5C 182.355,203.318 182.355,201.818 184.5,200C 183.915,198.698 183.249,197.531 182.5,196.5C 179.971,195.551 177.638,196.218 175.5,198.5C 174.088,197.194 172.421,196.36 170.5,196C 169.748,195.329 169.414,194.496 169.5,193.5C 172.495,193.706 175.162,193.04 177.5,191.5C 178.833,192.833 180.167,192.833 181.5,191.5C 181.811,192.478 182.478,193.145 183.5,193.5C 190.37,188.575 192.37,189.741 189.5,197C 190.416,197.374 191.25,197.874 192,198.5C 192.801,201.367 192.634,204.034 191.5,206.5 Z"/></g>
<g><path style="opacity:0.984" fill="#393a3b" d="M 138.5,195.5 C 140.346,195.222 141.68,195.889 142.5,197.5C 139.365,201.61 137.699,206.277 137.5,211.5C 137.253,212.713 136.586,213.38 135.5,213.5C 134.357,210.024 134.19,206.358 135,202.5C 135.139,199.555 136.306,197.221 138.5,195.5 Z"/></g>
<g><path style="opacity:1" fill="#181819" d="M 161.5,194.5 C 164.365,194.055 166.865,194.722 169,196.5C 168.502,198.527 168.669,200.527 169.5,202.5C 170.665,201.509 171.832,200.509 173,199.5C 175.949,200.356 178.783,200.689 181.5,200.5C 182.429,199.311 182.762,197.978 182.5,196.5C 183.249,197.531 183.915,198.698 184.5,200C 182.355,201.818 182.355,203.318 184.5,204.5C 182.995,205.842 182.328,207.508 182.5,209.5C 182.134,210.695 181.301,211.361 180,211.5C 176.152,210.332 172.319,209.165 168.5,208C 166.196,204.358 165.863,200.525 167.5,196.5C 165.214,196.405 163.214,195.738 161.5,194.5 Z"/></g>
<g><path style="opacity:0.963" fill="#17181a" d="M 148.5,192.5 C 146.966,194.342 147.3,195.675 149.5,196.5C 153.074,195.548 156.407,194.215 159.5,192.5C 159.842,193.338 160.508,193.672 161.5,193.5C 161.5,193.833 161.5,194.167 161.5,194.5C 160.178,194.67 159.011,194.337 158,193.5C 152.478,200.578 146.978,207.578 141.5,214.5C 139.177,215.831 137.177,215.498 135.5,213.5C 136.586,213.38 137.253,212.713 137.5,211.5C 137.699,206.277 139.365,201.61 142.5,197.5C 141.68,195.889 140.346,195.222 138.5,195.5C 141.856,194.865 145.189,193.865 148.5,192.5 Z"/></g>
</svg>
