<?xml version="1.0" encoding="UTF-8"?>
<!DOCTYPE svg PUBLIC "-//W3C//DTD SVG 1.1//EN" "http://www.w3.org/Graphics/SVG/1.1/DTD/svg11.dtd">
<svg xmlns="http://www.w3.org/2000/svg" version="1.1" width="500px" height="500px" style="shape-rendering:geometricPrecision; text-rendering:geometricPrecision; image-rendering:optimizeQuality; fill-rule:evenodd; clip-rule:evenodd" xmlns:xlink="http://www.w3.org/1999/xlink">
<g><path style="opacity:1" fill="#2f353b" d="M 117.5,157.5 C 117.5,161.833 117.5,166.167 117.5,170.5C 114.572,170.435 111.905,169.768 109.5,168.5C 109.751,166.83 110.418,165.33 111.5,164C 109.149,164.14 106.816,164.64 104.5,165.5C 104.785,163.712 104.452,162.045 103.5,160.5C 101.271,161.963 98.9373,162.797 96.5,163C 101.065,160.891 105.065,158.058 108.5,154.5C 107.311,153.571 105.978,153.238 104.5,153.5C 105.234,152.292 105.567,150.959 105.5,149.5C 111.193,149.129 115.193,151.796 117.5,157.5 Z"/></g>
<g><path style="opacity:1" fill="#3b4147" d="M 391.5,154.5 C 389.076,154.192 386.743,154.526 384.5,155.5C 384.365,158.552 384.032,161.552 383.5,164.5C 381.458,166.713 379.125,167.38 376.5,166.5C 375.614,167.325 375.281,168.325 375.5,169.5C 374.441,163.406 376.441,158.239 381.5,154C 385.066,151.883 388.4,152.05 391.5,154.5 Z"/></g>
<g><path style="opacity:1" fill="#15191e" d="M 104.5,153.5 C 105.978,153.238 107.311,153.571 108.5,154.5C 105.065,158.058 101.065,160.891 96.5,163C 98.9373,162.797 101.271,161.963 103.5,160.5C 104.452,162.045 104.785,163.712 104.5,165.5C 106.816,164.64 109.149,164.14 111.5,164C 110.418,165.33 109.751,166.83 109.5,168.5C 103.167,167.419 97.1669,165.419 91.5,162.5C 94.6442,159.857 97.6442,157.023 100.5,154C 101.793,153.51 103.127,153.343 104.5,153.5 Z"/></g>
<g><path style="opacity:1" fill="#48515a" d="M 142.5,161.5 C 144.379,161.393 144.712,161.893 143.5,163C 144.888,165.46 145.554,168.127 145.5,171C 145,175.5 144.5,180 144,184.5C 142.344,186.146 141.511,188.146 141.5,190.5C 143.133,193.814 144.8,197.148 146.5,200.5C 144.101,198.634 141.435,197.301 138.5,196.5C 138.399,188.197 138.065,180.03 137.5,172C 139.044,168.413 140.711,164.913 142.5,161.5 Z"/></g>
<g><path style="opacity:1" fill="#2f363d" d="M 391.5,154.5 C 390.529,155.962 390.862,157.295 392.5,158.5C 390.5,157.833 388.5,157.167 386.5,156.5C 385.671,158.693 386.337,160.693 388.5,162.5C 388.413,165.37 388.413,168.203 388.5,171C 384.903,172.774 381.569,172.274 378.5,169.5C 375.907,171.644 375.907,173.811 378.5,176C 381.555,176.634 384.555,176.468 387.5,175.5C 389.662,176.417 391.995,176.417 394.5,175.5C 392.618,176.237 391.952,177.404 392.5,179C 388.833,179.667 385.167,179.667 381.5,179C 384.5,178.667 387.5,178.333 390.5,178C 385.833,177.667 381.167,177.333 376.5,177C 372.424,174.64 368.091,173.307 363.5,173C 367.642,176.074 369.475,180.241 369,185.5C 365.139,190.9 362.472,196.9 361,203.5C 358.674,206.011 355.841,207.344 352.5,207.5C 351.357,207.092 350.357,206.425 349.5,205.5C 357.539,202.774 361.039,197.108 360,188.5C 361.041,186.415 362.541,184.748 364.5,183.5C 361.969,177.904 359.635,172.237 357.5,166.5C 359.216,166.371 360.883,166.038 362.5,165.5C 366.471,168.156 370.471,170.823 374.5,173.5C 375.429,172.311 375.762,170.978 375.5,169.5C 375.281,168.325 375.614,167.325 376.5,166.5C 379.125,167.38 381.458,166.713 383.5,164.5C 384.032,161.552 384.365,158.552 384.5,155.5C 386.743,154.526 389.076,154.192 391.5,154.5 Z"/></g>
<g><path style="opacity:1" fill="#0f1317" d="M 386.5,156.5 C 388.5,157.167 390.5,157.833 392.5,158.5C 397.333,160.977 401.667,164.31 405.5,168.5C 404.91,169.799 403.91,170.632 402.5,171C 398.756,172.017 395.089,173.184 391.5,174.5C 390.527,172.932 390.36,171.265 391,169.5C 393.167,168.667 394.667,167.167 395.5,165C 392.384,162.141 389.384,159.308 386.5,156.5 Z"/></g>
<g><path style="opacity:1" fill="#4a4e50" d="M 391.5,154.5 C 398.02,157.845 403.853,162.179 409,167.5C 411.516,175.641 413.183,183.974 414,192.5C 415.847,197.521 417.68,202.521 419.5,207.5C 417.907,206.652 416.74,205.319 416,203.5C 415.122,200.291 413.789,197.291 412,194.5C 411.273,187.506 410.607,180.506 410,173.5C 409.196,172.196 408.029,171.529 406.5,171.5C 402.667,173.421 398.667,174.754 394.5,175.5C 391.995,176.417 389.662,176.417 387.5,175.5C 388.833,175.167 390.167,174.833 391.5,174.5C 395.089,173.184 398.756,172.017 402.5,171C 403.91,170.632 404.91,169.799 405.5,168.5C 401.667,164.31 397.333,160.977 392.5,158.5C 390.862,157.295 390.529,155.962 391.5,154.5 Z"/></g>
<g><path style="opacity:1" fill="#1e2429" d="M 386.5,156.5 C 389.384,159.308 392.384,162.141 395.5,165C 394.667,167.167 393.167,168.667 391,169.5C 390.36,171.265 390.527,172.932 391.5,174.5C 390.167,174.833 388.833,175.167 387.5,175.5C 384.555,176.468 381.555,176.634 378.5,176C 375.907,173.811 375.907,171.644 378.5,169.5C 381.569,172.274 384.903,172.774 388.5,171C 388.413,168.203 388.413,165.37 388.5,162.5C 386.337,160.693 385.671,158.693 386.5,156.5 Z"/></g>
<g><path style="opacity:1" fill="#3b4249" d="M 105.5,149.5 C 105.567,150.959 105.234,152.292 104.5,153.5C 103.127,153.343 101.793,153.51 100.5,154C 97.6442,157.023 94.6442,159.857 91.5,162.5C 97.1669,165.419 103.167,167.419 109.5,168.5C 111.905,169.768 114.572,170.435 117.5,170.5C 117.5,166.167 117.5,161.833 117.5,157.5C 118.482,160.962 118.815,164.629 118.5,168.5C 120.903,168.552 123.236,168.219 125.5,167.5C 127.927,167.477 130.26,166.977 132.5,166C 135.374,163.959 138.374,162.126 141.5,160.5C 142.107,160.624 142.44,160.957 142.5,161.5C 140.711,164.913 139.044,168.413 137.5,172C 138.065,180.03 138.399,188.197 138.5,196.5C 141.435,197.301 144.101,198.634 146.5,200.5C 148.69,201.374 149.69,203.041 149.5,205.5C 146.888,206.371 144.221,207.037 141.5,207.5C 141.611,206.883 141.944,206.383 142.5,206C 138.948,203.297 135.448,200.464 132,197.5C 131.112,192.831 129.445,188.497 127,184.5C 126.116,179.673 126.616,175.006 128.5,170.5C 114.923,172.267 101.757,170.267 89,164.5C 87.5952,165.731 86.4286,167.064 85.5,168.5C 85.5907,164.818 86.924,161.651 89.5,159C 94.3934,155.055 99.7267,151.888 105.5,149.5 Z"/></g>
<g><path style="opacity:1" fill="#5c6167" d="M 352.5,163.5 C 352.83,174.759 353.497,186.092 354.5,197.5C 353.562,201.135 351.228,203.135 347.5,203.5C 347.634,205.292 347.301,206.958 346.5,208.5C 345.12,208.038 344.453,207.038 344.5,205.5C 346.063,202.043 347.896,198.71 350,195.5C 350.167,193.667 350.333,191.833 350.5,190C 349.241,182.531 348.741,175.031 349,167.5C 349.66,165.676 350.827,164.343 352.5,163.5 Z"/></g>
<g><path style="opacity:1" fill="#414850" d="M 362.5,165.5 C 360.883,166.038 359.216,166.371 357.5,166.5C 359.635,172.237 361.969,177.904 364.5,183.5C 362.541,184.748 361.041,186.415 360,188.5C 361.039,197.108 357.539,202.774 349.5,205.5C 350.357,206.425 351.357,207.092 352.5,207.5C 351.89,208.391 351.557,209.391 351.5,210.5C 349.447,210.598 347.78,209.931 346.5,208.5C 347.301,206.958 347.634,205.292 347.5,203.5C 351.228,203.135 353.562,201.135 354.5,197.5C 353.497,186.092 352.83,174.759 352.5,163.5C 356.283,161.99 359.616,162.657 362.5,165.5 Z"/></g>
<g><path style="opacity:1" fill="#565b5c" d="M 85.5,168.5 C 85.7667,180.841 82.6,192.175 76,202.5C 75.1329,209.341 72.2996,215.008 67.5,219.5C 71.3781,209.407 75.5447,199.407 80,189.5C 82.295,182.486 84.1284,175.486 85.5,168.5 Z"/></g>
<g><path style="opacity:1" fill="#676b6e" d="M 292.5,193.5 C 291.833,193.167 291.167,192.833 290.5,192.5C 287.204,190.279 283.537,189.113 279.5,189C 260.167,188.333 240.833,188.333 221.5,189C 217.419,189.634 213.752,191.134 210.5,193.5C 210.557,192.391 210.89,191.391 211.5,190.5C 213.148,189.073 215.148,188.24 217.5,188C 230.565,187.638 243.399,187.138 256,186.5C 265.089,187.319 274.256,187.819 283.5,188C 287.886,187.848 290.886,189.681 292.5,193.5 Z"/></g>
<g><path style="opacity:1" fill="#202529" d="M 419.5,207.5 C 419.34,209.199 419.506,210.866 420,212.5C 420.886,215.093 422.386,217.093 424.5,218.5C 424.5,218.833 424.5,219.167 424.5,219.5C 424.136,223.409 425.47,226.409 428.5,228.5C 429.023,231.89 429.857,235.223 431,238.5C 431.708,239.381 432.542,240.047 433.5,240.5C 433.999,244.49 434.499,248.49 435,252.5C 438.022,258.347 441.188,264.014 444.5,269.5C 444.5,269.833 444.5,270.167 444.5,270.5C 444.486,274.475 445.819,277.808 448.5,280.5C 450.771,285.98 452.437,291.647 453.5,297.5C 455.033,305.244 456.367,313.078 457.5,321C 457.312,323.355 456.979,325.688 456.5,328C 456.285,329.908 455.285,331.074 453.5,331.5C 454.142,328.865 454.809,326.198 455.5,323.5C 453.22,314.935 451.387,306.268 450,297.5C 449.155,293.837 447.322,290.837 444.5,288.5C 444.833,287.833 445.167,287.167 445.5,286.5C 443.728,284.059 442.394,281.392 441.5,278.5C 440.675,277.614 439.675,277.281 438.5,277.5C 438.34,279.199 438.506,280.866 439,282.5C 439.333,281.833 439.667,281.167 440,280.5C 440.233,282.78 441.066,284.78 442.5,286.5C 440.887,286.968 439.387,286.301 438,284.5C 437.617,285.056 437.117,285.389 436.5,285.5C 425.836,261.528 415.169,237.528 404.5,213.5C 402.058,213.119 401.391,213.786 402.5,215.5C 400.561,216.634 398.895,216.3 397.5,214.5C 398.552,214.649 399.552,214.483 400.5,214C 398.715,212.837 396.715,212.17 394.5,212C 397.572,211.544 400.572,211.544 403.5,212C 400.624,209.493 397.457,208.993 394,210.5C 393.202,208.741 393.369,207.074 394.5,205.5C 395.62,206.833 396.953,207.333 398.5,207C 397.549,203.943 397.216,200.777 397.5,197.5C 396.5,197.5 395.5,197.5 394.5,197.5C 395.806,196.533 396.473,195.199 396.5,193.5C 395.325,193.719 394.325,193.386 393.5,192.5C 394.441,192.511 395.108,192.011 395.5,191C 394.583,187.666 393.25,184.499 391.5,181.5C 390.833,181.833 390.167,182.167 389.5,182.5C 383.373,181.19 377.373,179.524 371.5,177.5C 372.817,184.785 372.817,191.785 371.5,198.5C 375.466,199.162 379.466,199.495 383.5,199.5C 383.413,196.402 383.913,196.068 385,198.5C 385.667,195.833 386.333,195.833 387,198.5C 387.333,197.167 387.667,195.833 388,194.5C 389.682,195.865 389.849,197.365 388.5,199C 389.563,200.188 390.897,200.688 392.5,200.5C 392.179,202.048 391.179,202.715 389.5,202.5C 389.214,204.277 388.547,205.944 387.5,207.5C 387.608,208.442 387.941,209.275 388.5,210C 385.435,211.087 382.435,211.753 379.5,212C 384.351,212.174 389.018,212.674 393.5,213.5C 391.473,213.338 389.473,213.505 387.5,214C 388.672,214.419 389.672,215.085 390.5,216C 380.487,212.997 370.154,211.663 359.5,212C 360.416,212.278 361.082,212.778 361.5,213.5C 357.838,213.277 354.505,212.277 351.5,210.5C 351.557,209.391 351.89,208.391 352.5,207.5C 355.841,207.344 358.674,206.011 361,203.5C 362.472,196.9 365.139,190.9 369,185.5C 369.475,180.241 367.642,176.074 363.5,173C 368.091,173.307 372.424,174.64 376.5,177C 381.167,177.333 385.833,177.667 390.5,178C 387.5,178.333 384.5,178.667 381.5,179C 385.167,179.667 388.833,179.667 392.5,179C 391.952,177.404 392.618,176.237 394.5,175.5C 398.667,174.754 402.667,173.421 406.5,171.5C 408.029,171.529 409.196,172.196 410,173.5C 410.607,180.506 411.273,187.506 412,194.5C 413.789,197.291 415.122,200.291 416,203.5C 416.74,205.319 417.907,206.652 419.5,207.5 Z"/></g>
<g><path style="opacity:1" fill="#040607" d="M 394.5,197.5 C 393.833,198.5 393.167,199.5 392.5,200.5C 390.897,200.688 389.563,200.188 388.5,199C 389.849,197.365 389.682,195.865 388,194.5C 387.667,195.833 387.333,197.167 387,198.5C 386.333,195.833 385.667,195.833 385,198.5C 383.913,196.068 383.413,196.402 383.5,199.5C 379.466,199.495 375.466,199.162 371.5,198.5C 372.817,191.785 372.817,184.785 371.5,177.5C 377.373,179.524 383.373,181.19 389.5,182.5C 390.167,182.167 390.833,181.833 391.5,181.5C 393.25,184.499 394.583,187.666 395.5,191C 395.108,192.011 394.441,192.511 393.5,192.5C 394.325,193.386 395.325,193.719 396.5,193.5C 396.473,195.199 395.806,196.533 394.5,197.5 Z"/></g>
<g><path style="opacity:1" fill="#2d353c" d="M 290.5,192.5 C 291.167,192.833 291.833,193.167 292.5,193.5C 294.277,196.505 295.277,199.838 295.5,203.5C 294.596,202.791 294.263,201.791 294.5,200.5C 290.92,201.077 287.92,200.077 285.5,197.5C 276.853,196.335 268.186,196.168 259.5,197C 257.942,197.21 256.609,197.71 255.5,198.5C 248.833,198.5 242.167,198.5 235.5,198.5C 235.389,197.883 235.056,197.383 234.5,197C 230.167,196.333 225.833,196.333 221.5,197C 219.129,198.879 216.462,200.045 213.5,200.5C 213.032,195.461 215.365,192.628 220.5,192C 240.916,191.801 261.249,191.801 281.5,192C 284.308,192.598 286.808,193.765 289,195.5C 290.039,194.756 290.539,193.756 290.5,192.5 Z"/></g>
<g><path style="opacity:1" fill="#61676d" d="M 149.5,205.5 C 149.69,203.041 148.69,201.374 146.5,200.5C 144.8,197.148 143.133,193.814 141.5,190.5C 141.511,188.146 142.344,186.146 144,184.5C 144.5,180 145,175.5 145.5,171C 145.554,168.127 144.888,165.46 143.5,163C 144.712,161.893 144.379,161.393 142.5,161.5C 142.44,160.957 142.107,160.624 141.5,160.5C 138.374,162.126 135.374,163.959 132.5,166C 130.26,166.977 127.927,167.477 125.5,167.5C 130.093,161.703 136.093,158.87 143.5,159C 146.18,161.363 147.513,164.363 147.5,168C 146.704,174.866 145.704,181.7 144.5,188.5C 145.036,190.942 145.869,193.275 147,195.5C 151.281,198.289 152.114,201.622 149.5,205.5 Z"/></g>
<g><path style="opacity:1" fill="#1b2126" d="M 295.5,203.5 C 296.451,204.919 296.784,206.585 296.5,208.5C 296.5,210.833 296.5,213.167 296.5,215.5C 295.178,215.67 294.011,215.337 293,214.5C 290.22,207.72 285.387,202.887 278.5,200C 270.905,198.644 263.238,198.144 255.5,198.5C 256.609,197.71 257.942,197.21 259.5,197C 268.186,196.168 276.853,196.335 285.5,197.5C 287.92,200.077 290.92,201.077 294.5,200.5C 294.263,201.791 294.596,202.791 295.5,203.5 Z"/></g>
<g><path style="opacity:1" fill="#353d44" d="M 235.5,198.5 C 242.167,198.5 248.833,198.5 255.5,198.5C 263.238,198.144 270.905,198.644 278.5,200C 285.387,202.887 290.22,207.72 293,214.5C 294.011,215.337 295.178,215.67 296.5,215.5C 296.5,213.167 296.5,210.833 296.5,208.5C 297.785,211.589 298.451,214.922 298.5,218.5C 298.5,219.5 298.5,220.5 298.5,221.5C 297.698,220.048 297.198,218.382 297,216.5C 296.333,219.167 295.667,219.167 295,216.5C 295.614,222.932 296.114,229.432 296.5,236C 296.333,238.833 296.167,241.667 296,244.5C 294.812,243.437 294.312,242.103 294.5,240.5C 294.631,239.624 294.298,238.957 293.5,238.5C 292.719,239.729 292.219,241.062 292,242.5C 290.601,241.773 289.101,241.273 287.5,241C 288.451,240.282 288.617,239.449 288,238.5C 283.382,238.725 278.716,239.058 274,239.5C 270.896,239.149 271.063,238.649 274.5,238C 275.888,237.111 275.722,236.611 274,236.5C 271.354,237.677 268.688,237.677 266,236.5C 264.635,236.844 263.468,237.511 262.5,238.5C 260.66,235.158 258.494,234.824 256,237.5C 254.396,236.932 253.73,235.932 254,234.5C 256.193,234.852 258.36,234.352 260.5,233C 259.91,231.701 258.91,230.868 257.5,230.5C 255.5,231.167 253.5,231.833 251.5,232.5C 249.971,232.471 248.804,231.804 248,230.5C 246.649,231.961 245.149,233.294 243.5,234.5C 242.494,234.062 242.494,233.396 243.5,232.5C 242.675,231.614 241.675,231.281 240.5,231.5C 240.119,236.088 238.953,236.422 237,232.5C 234.977,234.013 235.144,235.346 237.5,236.5C 235.599,237.935 235.266,239.602 236.5,241.5C 235.167,242.5 233.833,243.5 232.5,244.5C 231.904,243.284 231.737,241.951 232,240.5C 230.703,241.784 229.536,241.617 228.5,240C 229.624,239.751 230.624,239.251 231.5,238.5C 229.774,236.97 227.774,235.97 225.5,235.5C 221.566,235.982 217.9,237.148 214.5,239C 216.248,239.08 217.915,239.913 219.5,241.5C 216.748,243.336 213.748,244.336 210.5,244.5C 210.657,243.127 210.49,241.793 210,240.5C 209.275,243.79 208.108,246.79 206.5,249.5C 206.5,247.833 206.5,246.167 206.5,244.5C 207.339,243.359 208.006,242.026 208.5,240.5C 209.325,239.614 210.325,239.281 211.5,239.5C 211.666,234.821 211.499,230.155 211,225.5C 210.667,225.833 210.333,226.167 210,226.5C 209.18,224.272 209.513,222.272 211,220.5C 211.333,221.833 211.667,223.167 212,224.5C 213.216,217.307 215.216,210.307 218,203.5C 222.999,199.076 228.832,197.41 235.5,198.5 Z"/></g>
<g><path style="opacity:1" fill="#3d454b" d="M 394.5,197.5 C 395.5,197.5 396.5,197.5 397.5,197.5C 397.216,200.777 397.549,203.943 398.5,207C 396.953,207.333 395.62,206.833 394.5,205.5C 393.369,207.074 393.202,208.741 394,210.5C 397.457,208.993 400.624,209.493 403.5,212C 400.572,211.544 397.572,211.544 394.5,212C 396.715,212.17 398.715,212.837 400.5,214C 399.552,214.483 398.552,214.649 397.5,214.5C 396.432,213.566 395.099,213.232 393.5,213.5C 389.018,212.674 384.351,212.174 379.5,212C 382.435,211.753 385.435,211.087 388.5,210C 387.941,209.275 387.608,208.442 387.5,207.5C 388.547,205.944 389.214,204.277 389.5,202.5C 391.179,202.715 392.179,202.048 392.5,200.5C 393.167,199.5 393.833,198.5 394.5,197.5 Z"/></g>
<g><path style="opacity:1" fill="#717476" d="M 419.5,207.5 C 421.403,210.979 423.07,214.646 424.5,218.5C 422.386,217.093 420.886,215.093 420,212.5C 419.506,210.866 419.34,209.199 419.5,207.5 Z"/></g>
<g><path style="opacity:1" fill="#23292d" d="M 290.5,192.5 C 290.539,193.756 290.039,194.756 289,195.5C 286.808,193.765 284.308,192.598 281.5,192C 261.249,191.801 240.916,191.801 220.5,192C 215.365,192.628 213.032,195.461 213.5,200.5C 216.462,200.045 219.129,198.879 221.5,197C 225.833,196.333 230.167,196.333 234.5,197C 235.056,197.383 235.389,197.883 235.5,198.5C 228.832,197.41 222.999,199.076 218,203.5C 215.216,210.307 213.216,217.307 212,224.5C 211.667,223.167 211.333,221.833 211,220.5C 209.513,222.272 209.18,224.272 210,226.5C 210.333,226.167 210.667,225.833 211,225.5C 211.499,230.155 211.666,234.821 211.5,239.5C 210.325,239.281 209.325,239.614 208.5,240.5C 208.006,242.026 207.339,243.359 206.5,244.5C 207.454,231.913 208.787,219.413 210.5,207C 209.891,205.052 209.224,203.218 208.5,201.5C 209.167,198.833 209.833,196.167 210.5,193.5C 213.752,191.134 217.419,189.634 221.5,189C 240.833,188.333 260.167,188.333 279.5,189C 283.537,189.113 287.204,190.279 290.5,192.5 Z"/></g>
<g><path style="opacity:1" fill="#717475" d="M 424.5,219.5 C 426.592,222.088 427.925,225.088 428.5,228.5C 425.47,226.409 424.136,223.409 424.5,219.5 Z"/></g>
<g><path style="opacity:1" fill="#060808" d="M 393.5,213.5 C 395.099,213.232 396.432,213.566 397.5,214.5C 398.895,216.3 400.561,216.634 402.5,215.5C 401.391,213.786 402.058,213.119 404.5,213.5C 415.169,237.528 425.836,261.528 436.5,285.5C 438.466,291.389 439.799,297.389 440.5,303.5C 438.784,303.371 437.117,303.038 435.5,302.5C 433.649,295.454 430.649,288.787 426.5,282.5C 423.826,274.151 420.326,266.151 416,258.5C 415.333,259.5 415.333,260.5 416,261.5C 419.727,268.284 422.894,275.284 425.5,282.5C 428.179,286.504 429.679,290.837 430,295.5C 428.28,298.356 426.28,301.023 424,303.5C 422.374,302.711 420.874,301.711 419.5,300.5C 420.485,298.902 420.651,297.235 420,295.5C 410.96,273.373 400.96,251.707 390,230.5C 388.964,227.247 388.297,223.914 388,220.5C 385.815,218.46 383.315,217.126 380.5,216.5C 374.238,215.092 367.905,214.092 361.5,213.5C 361.082,212.778 360.416,212.278 359.5,212C 370.154,211.663 380.487,212.997 390.5,216C 389.672,215.085 388.672,214.419 387.5,214C 389.473,213.505 391.473,213.338 393.5,213.5 Z"/></g>
<g><path style="opacity:1" fill="#696c6f" d="M 376.5,229.5 C 378.649,231.046 380.816,232.712 383,234.5C 386.422,239.345 388.755,244.678 390,250.5C 392.774,254.96 395.274,259.627 397.5,264.5C 397.137,265.183 396.804,265.85 396.5,266.5C 389.87,254.189 383.203,241.855 376.5,229.5 Z"/></g>
<g><path style="opacity:0.988" fill="#6e7073" d="M 428.5,228.5 C 430.679,232.203 432.345,236.203 433.5,240.5C 432.542,240.047 431.708,239.381 431,238.5C 429.857,235.223 429.023,231.89 428.5,228.5 Z"/></g>
<g><path style="opacity:1" fill="#494845" d="M 397.5,224.5 C 397.56,223.957 397.893,223.624 398.5,223.5C 405.333,233.828 410.5,244.828 414,256.5C 409.251,245.333 403.751,234.666 397.5,224.5 Z"/></g>
<g><path style="opacity:1" fill="#525557" d="M 433.5,240.5 C 437.402,249.989 441.069,259.656 444.5,269.5C 441.188,264.014 438.022,258.347 435,252.5C 434.499,248.49 433.999,244.49 433.5,240.5 Z"/></g>
<g><path style="opacity:1" fill="#414749" d="M 59.5,240.5 C 58.6629,248.859 56.4962,256.859 53,264.5C 51.8873,265.305 50.7206,265.972 49.5,266.5C 52.2661,257.523 55.5994,248.856 59.5,240.5 Z"/></g>
<g><path style="opacity:1" fill="#3c4146" d="M 361.5,213.5 C 367.905,214.092 374.238,215.092 380.5,216.5C 381.968,217.806 383.301,219.306 384.5,221C 383.643,221.689 382.977,222.522 382.5,223.5C 382.95,226.202 383.45,229.202 384,232.5C 392.124,243.746 398.957,255.746 404.5,268.5C 405.242,269.287 406.075,269.953 407,270.5C 410.031,279.085 412.698,287.751 415,296.5C 416.094,299.937 415.26,302.604 412.5,304.5C 413.961,301.518 414.294,298.518 413.5,295.5C 409.376,285.855 404.542,276.521 399,267.5C 398.329,266.748 397.496,266.414 396.5,266.5C 396.804,265.85 397.137,265.183 397.5,264.5C 395.274,259.627 392.774,254.96 390,250.5C 388.755,244.678 386.422,239.345 383,234.5C 380.816,232.712 378.649,231.046 376.5,229.5C 374.425,226.354 372.592,223.021 371,219.5C 368.152,216.848 364.985,214.848 361.5,213.5 Z"/></g>
<g><path style="opacity:1" fill="#313940" d="M 294.5,240.5 C 294.473,245.206 293.806,250.039 292.5,255C 293.264,258.072 294.597,260.906 296.5,263.5C 296.554,262.313 296.887,260.98 297.5,259.5C 300.268,261.428 301.102,264.095 300,267.5C 299.333,266.833 298.667,266.167 298,265.5C 296.87,271.373 298.036,276.706 301.5,281.5C 300.3,282.292 298.967,282.292 297.5,281.5C 295.473,281.662 293.473,281.495 291.5,281C 292.833,280.667 294.167,280.333 295.5,280C 291.694,279.926 288.027,279.76 284.5,279.5C 282.307,279.771 280.641,280.771 279.5,282.5C 277.952,282.179 277.285,281.179 277.5,279.5C 272.385,278.741 267.718,276.907 263.5,274C 252.421,271.57 241.588,272.403 231,276.5C 228.339,278.995 225.839,281.661 223.5,284.5C 223.667,284.833 223.833,285.167 224,285.5C 227.979,280.426 233.146,277.259 239.5,276C 250.602,274.365 261.269,275.699 271.5,280C 273.017,281.685 274.684,283.185 276.5,284.5C 277.331,286.58 278.331,288.58 279.5,290.5C 279.332,292.171 278.665,293.504 277.5,294.5C 275.272,293.678 274.605,292.345 275.5,290.5C 275.023,289.522 274.357,288.689 273.5,288C 264.167,287.333 254.833,287.333 245.5,288C 244.285,290.096 243.451,289.929 243,287.5C 239.711,288.461 236.211,288.461 232.5,287.5C 227.931,287.098 226.431,289.098 228,293.5C 229.085,292.707 230.252,292.04 231.5,291.5C 233.371,292.767 235.204,292.767 237,291.5C 239.333,294.167 241.667,294.167 244,291.5C 245.908,293.907 247.908,293.907 250,291.5C 250.95,292.022 251.784,292.689 252.5,293.5C 253.167,292.167 253.833,290.833 254.5,289.5C 254.554,290.687 254.887,292.02 255.5,293.5C 256.167,293.167 256.833,292.833 257.5,292.5C 258.696,292.846 258.696,293.346 257.5,294C 259.536,294.454 261.37,295.287 263,296.5C 267.725,296.268 272.559,296.268 277.5,296.5C 276.432,299.075 274.765,301.242 272.5,303C 259.176,308.962 245.842,308.962 232.5,303C 226.212,299.714 222.712,294.547 222,287.5C 221.505,289.473 221.338,291.473 221.5,293.5C 217.22,295.079 212.72,296.079 208,296.5C 205.95,293.852 204.784,290.852 204.5,287.5C 204.543,284.413 204.71,281.413 205,278.5C 204.085,279.328 203.419,280.328 203,281.5C 202.833,279.333 202.667,277.167 202.5,275C 203.568,266.202 204.901,257.702 206.5,249.5C 208.108,246.79 209.275,243.79 210,240.5C 210.49,241.793 210.657,243.127 210.5,244.5C 213.748,244.336 216.748,243.336 219.5,241.5C 217.915,239.913 216.248,239.08 214.5,239C 217.9,237.148 221.566,235.982 225.5,235.5C 227.774,235.97 229.774,236.97 231.5,238.5C 230.624,239.251 229.624,239.751 228.5,240C 229.536,241.617 230.703,241.784 232,240.5C 231.737,241.951 231.904,243.284 232.5,244.5C 233.833,243.5 235.167,242.5 236.5,241.5C 235.266,239.602 235.599,237.935 237.5,236.5C 235.144,235.346 234.977,234.013 237,232.5C 238.953,236.422 240.119,236.088 240.5,231.5C 241.675,231.281 242.675,231.614 243.5,232.5C 242.494,233.396 242.494,234.062 243.5,234.5C 245.149,233.294 246.649,231.961 248,230.5C 248.804,231.804 249.971,232.471 251.5,232.5C 253.5,231.833 255.5,231.167 257.5,230.5C 258.91,230.868 259.91,231.701 260.5,233C 258.36,234.352 256.193,234.852 254,234.5C 253.73,235.932 254.396,236.932 256,237.5C 258.494,234.824 260.66,235.158 262.5,238.5C 263.468,237.511 264.635,236.844 266,236.5C 268.688,237.677 271.354,237.677 274,236.5C 275.722,236.611 275.888,237.111 274.5,238C 271.063,238.649 270.896,239.149 274,239.5C 278.716,239.058 283.382,238.725 288,238.5C 288.617,239.449 288.451,240.282 287.5,241C 289.101,241.273 290.601,241.773 292,242.5C 292.219,241.062 292.719,239.729 293.5,238.5C 294.298,238.957 294.631,239.624 294.5,240.5 Z"/></g>
<g><path style="opacity:1" fill="#4d4c48" d="M 426.5,282.5 C 426.167,282.5 425.833,282.5 425.5,282.5C 422.894,275.284 419.727,268.284 416,261.5C 415.333,260.5 415.333,259.5 416,258.5C 420.326,266.151 423.826,274.151 426.5,282.5 Z"/></g>
<g><path style="opacity:0.98" fill="#838689" d="M 396.5,266.5 C 397.496,266.414 398.329,266.748 399,267.5C 404.542,276.521 409.376,285.855 413.5,295.5C 411.204,293.599 409.371,291.266 408,288.5C 403.886,281.271 400.053,273.937 396.5,266.5 Z"/></g>
<g><path style="opacity:1" fill="#6c6f70" d="M 444.5,270.5 C 446.346,273.54 447.679,276.873 448.5,280.5C 445.819,277.808 444.486,274.475 444.5,270.5 Z"/></g>
<g><path style="opacity:1" fill="#737b82" d="M 211.5,190.5 C 210.89,191.391 210.557,192.391 210.5,193.5C 209.833,196.167 209.167,198.833 208.5,201.5C 208.167,202.833 207.833,204.167 207.5,205.5C 205.511,215.767 203.844,226.101 202.5,236.5C 200.32,244.938 198.653,253.605 197.5,262.5C 196.37,267.701 195.204,273.035 194,278.5C 193.333,277.167 192.667,277.167 192,278.5C 190.36,280.579 189.194,282.912 188.5,285.5C 188.043,286.298 187.376,286.631 186.5,286.5C 193.442,257.958 199.942,229.291 206,200.5C 206.873,197.382 208.039,194.382 209.5,191.5C 209.957,190.702 210.624,190.369 211.5,190.5 Z"/></g>
<g><path style="opacity:1" fill="#414648" d="M 49.5,267.5 C 48.2693,273.061 47.436,278.728 47,284.5C 44.4772,288.233 41.9772,291.899 39.5,295.5C 42.2654,285.864 45.5987,276.531 49.5,267.5 Z"/></g>
<g><path style="opacity:0.965" fill="#6c7272" d="M 39.5,296.5 C 39.2311,301.264 37.8978,305.597 35.5,309.5C 36.0569,304.835 37.3902,300.502 39.5,296.5 Z"/></g>
<g><path style="opacity:1" fill="#20252a" d="M 141.5,207.5 C 141.167,207.5 140.833,207.5 140.5,207.5C 138.833,207.5 137.167,207.5 135.5,207.5C 133.696,206.838 131.696,206.505 129.5,206.5C 125.107,206.868 120.774,207.534 116.5,208.5C 111.579,207.897 106.579,207.897 101.5,208.5C 97.7609,209.483 94.4276,210.983 91.5,213C 93.8333,210.667 96.1667,208.333 98.5,206C 101.833,206.333 105.167,206.667 108.5,207C 105.761,206.088 103.428,204.588 101.5,202.5C 97.796,203.369 95.1293,205.536 93.5,209C 92.6683,209.688 92.0016,209.521 91.5,208.5C 92.8076,206.359 94.3076,204.359 96,202.5C 96.7709,199.81 97.6042,197.144 98.5,194.5C 99.604,196.389 100.937,198.055 102.5,199.5C 102.308,198.038 102.641,196.372 103.5,194.5C 105.138,195.914 106.472,195.58 107.5,193.5C 112.816,196.076 118.149,196.076 123.5,193.5C 123.273,186.163 123.939,178.83 125.5,171.5C 118.326,173.296 110.993,173.963 103.5,173.5C 103.967,178.4 103.301,183.067 101.5,187.5C 100.178,187.33 99.0113,187.663 98,188.5C 95.0178,193.78 91.8511,198.947 88.5,204C 88.9574,204.414 89.2907,204.914 89.5,205.5C 86.9273,211.256 84.2607,216.589 81.5,221.5C 82.6293,223.529 82.1293,223.863 80,222.5C 78.3331,228.17 75.8331,233.503 72.5,238.5C 73.0253,239.192 73.6919,239.692 74.5,240C 72.997,245.006 70.6637,249.673 67.5,254C 66.9097,256.196 66.2431,258.362 65.5,260.5C 65.6236,261.107 65.9569,261.44 66.5,261.5C 61.0186,273.279 57.352,285.612 55.5,298.5C 58.1667,298.167 60.8333,297.833 63.5,297.5C 63.5,296.167 63.5,294.833 63.5,293.5C 66.5754,294.072 68.5754,295.905 69.5,299C 70.448,299.483 71.448,299.649 72.5,299.5C 74.1493,292.718 76.316,286.051 79,279.5C 82.3253,275.892 84.3253,271.559 85,266.5C 89.1044,257.855 93.7711,249.522 99,241.5C 102.201,234.181 104.701,226.681 106.5,219C 108.084,217.165 109.417,215.165 110.5,213C 112.765,211.882 115.099,211.049 117.5,210.5C 116.531,211.309 115.698,212.309 115,213.5C 113.953,217.114 113.12,220.78 112.5,224.5C 105.875,236.085 100.041,248.085 95,260.5C 90.8689,267.936 86.3689,275.102 81.5,282C 79.0307,287.117 78.364,292.284 79.5,297.5C 81.314,300.041 83.314,302.541 85.5,305C 88.7895,305.882 92.1228,306.548 95.5,307C 111.5,307.667 127.5,307.667 143.5,307C 156.569,306.943 169.569,306.277 182.5,305C 186.104,300.721 190.271,297.221 195,294.5C 197.839,276.414 200.339,258.414 202.5,240.5C 202.119,247.178 201.952,253.844 202,260.5C 204.12,243.496 206.286,226.496 208.5,209.5C 208.489,207.955 208.156,206.622 207.5,205.5C 207.833,204.167 208.167,202.833 208.5,201.5C 209.224,203.218 209.891,205.052 210.5,207C 208.787,219.413 207.454,231.913 206.5,244.5C 206.5,246.167 206.5,247.833 206.5,249.5C 204.901,257.702 203.568,266.202 202.5,275C 202.667,277.167 202.833,279.333 203,281.5C 203.419,280.328 204.085,279.328 205,278.5C 204.71,281.413 204.543,284.413 204.5,287.5C 203.508,287.328 202.842,287.662 202.5,288.5C 200.348,292.403 199.181,296.736 199,301.5C 198.692,300.692 198.192,300.025 197.5,299.5C 195.344,301.49 193.344,303.657 191.5,306C 188.013,307.622 184.346,308.455 180.5,308.5C 180.634,310.292 180.301,311.958 179.5,313.5C 177.113,314.313 174.78,314.646 172.5,314.5C 172.67,313.178 172.337,312.011 171.5,311C 172.95,310.883 174.45,311.05 176,311.5C 176.833,311.333 177.667,311.167 178.5,311C 178.167,310.667 177.833,310.333 177.5,310C 154.16,310.087 130.827,310.754 107.5,312C 116.295,313.347 124.962,315.181 133.5,317.5C 137.852,316.171 142.186,316.171 146.5,317.5C 145.531,318.309 144.698,319.309 144,320.5C 134.438,320.201 124.772,319.535 115,318.5C 107.553,318.922 100.053,319.256 92.5,319.5C 80.84,315.79 68.1733,312.956 54.5,311C 50.9315,308.34 49.5981,305.007 50.5,301C 48.6992,300.683 48.3659,300.016 49.5,299C 48.2845,296.904 47.4512,297.071 47,299.5C 46.5065,297.866 46.3398,296.199 46.5,294.5C 50.1431,293.618 51.3098,291.284 50,287.5C 49.3946,289.481 48.3946,289.815 47,288.5C 44.1095,298.373 40.6095,307.706 36.5,316.5C 38.4745,318.545 38.4745,320.212 36.5,321.5C 37.0541,324.087 38.0541,326.42 39.5,328.5C 38.5,328.5 37.5,328.5 36.5,328.5C 35.8857,324.865 35.5524,321.198 35.5,317.5C 35.5,314.833 35.5,312.167 35.5,309.5C 37.8978,305.597 39.2311,301.264 39.5,296.5C 39.5,296.167 39.5,295.833 39.5,295.5C 41.9772,291.899 44.4772,288.233 47,284.5C 47.436,278.728 48.2693,273.061 49.5,267.5C 49.5,267.167 49.5,266.833 49.5,266.5C 50.7206,265.972 51.8873,265.305 53,264.5C 56.4962,256.859 58.6629,248.859 59.5,240.5C 61.3996,233.124 64.0663,226.124 67.5,219.5C 72.2996,215.008 75.1329,209.341 76,202.5C 82.6,192.175 85.7667,180.841 85.5,168.5C 86.4286,167.064 87.5952,165.731 89,164.5C 101.757,170.267 114.923,172.267 128.5,170.5C 126.616,175.006 126.116,179.673 127,184.5C 129.445,188.497 131.112,192.831 132,197.5C 135.448,200.464 138.948,203.297 142.5,206C 141.944,206.383 141.611,206.883 141.5,207.5 Z"/></g>
<g><path style="opacity:1" fill="#636c75" d="M 197.5,262.5 C 198.161,271.44 196.995,280.107 194,288.5C 193.667,288.167 193.333,287.833 193,287.5C 189.926,290.325 187.092,293.492 184.5,297C 159.677,304.015 134.343,307.015 108.5,306C 104.72,305.082 101.054,304.249 97.5,303.5C 112.857,303.708 128.19,303.208 143.5,302C 152.989,299.935 162.655,298.435 172.5,297.5C 172.863,296.817 173.196,296.15 173.5,295.5C 179.096,294.212 183.429,291.212 186.5,286.5C 187.376,286.631 188.043,286.298 188.5,285.5C 189.194,282.912 190.36,280.579 192,278.5C 192.667,277.167 193.333,277.167 194,278.5C 195.204,273.035 196.37,267.701 197.5,262.5 Z"/></g>
<g><path style="opacity:1" fill="#61656a" d="M 92.5,272.5 C 90.9565,277.024 88.6232,281.024 85.5,284.5C 86.3631,281.097 87.5298,277.764 89,274.5C 89.8159,273.177 90.9826,272.511 92.5,272.5 Z"/></g>
<g><path style="opacity:1" fill="#070a0d" d="M 135.5,207.5 C 129.404,208.132 123.404,209.132 117.5,210.5C 115.099,211.049 112.765,211.882 110.5,213C 109.417,215.165 108.084,217.165 106.5,219C 104.701,226.681 102.201,234.181 99,241.5C 93.7711,249.522 89.1044,257.855 85,266.5C 84.3253,271.559 82.3253,275.892 79,279.5C 76.316,286.051 74.1493,292.718 72.5,299.5C 71.448,299.649 70.448,299.483 69.5,299C 68.5754,295.905 66.5754,294.072 63.5,293.5C 63.5,294.833 63.5,296.167 63.5,297.5C 60.8333,297.833 58.1667,298.167 55.5,298.5C 57.352,285.612 61.0186,273.279 66.5,261.5C 69.3986,254.749 72.5653,248.083 76,241.5C 79.9909,234.907 83.9909,228.24 88,221.5C 91.7356,216.262 96.2356,211.929 101.5,208.5C 106.579,207.897 111.579,207.897 116.5,208.5C 120.774,207.534 125.107,206.868 129.5,206.5C 131.696,206.505 133.696,206.838 135.5,207.5 Z"/></g>
<g><path style="opacity:1" fill="#373d44" d="M 135.5,207.5 C 137.167,207.5 138.833,207.5 140.5,207.5C 136.999,208.8 133.333,209.966 129.5,211C 126.448,214.941 123.782,219.107 121.5,223.5C 118.909,224.254 117.076,225.921 116,228.5C 112.919,234.331 109.585,239.998 106,245.5C 104.293,247.909 103.46,250.575 103.5,253.5C 100.588,260.332 96.9209,266.666 92.5,272.5C 90.9826,272.511 89.8159,273.177 89,274.5C 87.5298,277.764 86.3631,281.097 85.5,284.5C 84.8826,284.389 84.3826,284.056 84,283.5C 83.7547,285.663 82.7547,287.33 81,288.5C 80.6371,291.544 80.1371,294.544 79.5,297.5C 78.364,292.284 79.0307,287.117 81.5,282C 86.3689,275.102 90.8689,267.936 95,260.5C 100.041,248.085 105.875,236.085 112.5,224.5C 113.12,220.78 113.953,217.114 115,213.5C 115.698,212.309 116.531,211.309 117.5,210.5C 123.404,209.132 129.404,208.132 135.5,207.5 Z"/></g>
<g><path style="opacity:0.973" fill="#73767b" d="M 121.5,223.5 C 115.485,233.536 109.485,243.536 103.5,253.5C 103.46,250.575 104.293,247.909 106,245.5C 109.585,239.998 112.919,234.331 116,228.5C 117.076,225.921 118.909,224.254 121.5,223.5 Z"/></g>
<g><path style="opacity:1" fill="#0d1217" d="M 207.5,205.5 C 208.156,206.622 208.489,207.955 208.5,209.5C 206.286,226.496 204.12,243.496 202,260.5C 201.952,253.844 202.119,247.178 202.5,240.5C 202.5,239.167 202.5,237.833 202.5,236.5C 203.844,226.101 205.511,215.767 207.5,205.5 Z"/></g>
<g><path style="opacity:1" fill="#3f464c" d="M 101.5,187.5 C 101.927,190.01 102.593,192.343 103.5,194.5C 102.641,196.372 102.308,198.038 102.5,199.5C 100.937,198.055 99.604,196.389 98.5,194.5C 97.6042,197.144 96.7709,199.81 96,202.5C 94.3076,204.359 92.8076,206.359 91.5,208.5C 92.0016,209.521 92.6683,209.688 93.5,209C 95.1293,205.536 97.796,203.369 101.5,202.5C 103.428,204.588 105.761,206.088 108.5,207C 105.167,206.667 101.833,206.333 98.5,206C 96.1667,208.333 93.8333,210.667 91.5,213C 94.4276,210.983 97.7609,209.483 101.5,208.5C 96.2356,211.929 91.7356,216.262 88,221.5C 83.9909,228.24 79.9909,234.907 76,241.5C 72.5653,248.083 69.3986,254.749 66.5,261.5C 65.9569,261.44 65.6236,261.107 65.5,260.5C 66.2431,258.362 66.9097,256.196 67.5,254C 70.6637,249.673 72.997,245.006 74.5,240C 73.6919,239.692 73.0253,239.192 72.5,238.5C 75.8331,233.503 78.3331,228.17 80,222.5C 82.1293,223.863 82.6293,223.529 81.5,221.5C 84.2607,216.589 86.9273,211.256 89.5,205.5C 89.2907,204.914 88.9574,204.414 88.5,204C 91.8511,198.947 95.0178,193.78 98,188.5C 99.0113,187.663 100.178,187.33 101.5,187.5 Z"/></g>
<g><path style="opacity:1" fill="#05080b" d="M 103.5,194.5 C 102.593,192.343 101.927,190.01 101.5,187.5C 103.301,183.067 103.967,178.4 103.5,173.5C 110.993,173.963 118.326,173.296 125.5,171.5C 123.939,178.83 123.273,186.163 123.5,193.5C 118.149,196.076 112.816,196.076 107.5,193.5C 106.472,195.58 105.138,195.914 103.5,194.5 Z"/></g>
<g><path style="opacity:1" fill="#04080c" d="M 70.5,302.5 C 72.8568,302.337 75.1902,302.503 77.5,303C 78.9733,303.71 79.6399,304.876 79.5,306.5C 82.1656,306.933 84.8323,307.433 87.5,308C 103.5,308.333 119.5,308.667 135.5,309C 114.167,309.667 92.8333,309.667 71.5,309C 68.6287,308.882 65.962,308.216 63.5,307C 65.7243,305.219 68.0577,303.719 70.5,302.5 Z"/></g>
<g><path style="opacity:1" fill="#161a1d" d="M 146.5,317.5 C 147.209,316.596 148.209,316.263 149.5,316.5C 148.604,319.069 146.938,321.069 144.5,322.5C 146.045,323.452 147.712,323.785 149.5,323.5C 149.5,326.5 149.5,329.5 149.5,332.5C 143.159,333.018 142.492,334.351 147.5,336.5C 143.374,337.715 139.374,339.048 135.5,340.5C 133.874,340.062 132.207,339.728 130.5,339.5C 128.97,339.64 127.97,340.307 127.5,341.5C 118.734,339.82 110.067,339.486 101.5,340.5C 91.4723,338.665 81.4723,336.999 71.5,335.5C 60.6804,333.719 50.0138,331.385 39.5,328.5C 38.0541,326.42 37.0541,324.087 36.5,321.5C 38.4745,320.212 38.4745,318.545 36.5,316.5C 40.6095,307.706 44.1095,298.373 47,288.5C 48.3946,289.815 49.3946,289.481 50,287.5C 51.3098,291.284 50.1431,293.618 46.5,294.5C 46.3398,296.199 46.5065,297.866 47,299.5C 47.4512,297.071 48.2845,296.904 49.5,299C 48.3659,300.016 48.6992,300.683 50.5,301C 49.5981,305.007 50.9315,308.34 54.5,311C 68.1733,312.956 80.84,315.79 92.5,319.5C 100.053,319.256 107.553,318.922 115,318.5C 124.772,319.535 134.438,320.201 144,320.5C 144.698,319.309 145.531,318.309 146.5,317.5 Z"/></g>
<g><path style="opacity:1" fill="#43484e" d="M 312.5,298.5 C 318.851,301.842 325.517,304.342 332.5,306C 345.937,307.701 359.271,309.201 372.5,310.5C 360.137,310.331 347.804,309.664 335.5,308.5C 331.637,307.673 327.637,306.839 323.5,306C 319.634,303.607 315.968,301.107 312.5,298.5 Z"/></g>
<g><path style="opacity:1" fill="#4e555c" d="M 202.5,236.5 C 202.5,237.833 202.5,239.167 202.5,240.5C 200.339,258.414 197.839,276.414 195,294.5C 190.271,297.221 186.104,300.721 182.5,305C 169.569,306.277 156.569,306.943 143.5,307C 127.5,307.667 111.5,307.667 95.5,307C 92.1228,306.548 88.7895,305.882 85.5,305C 83.314,302.541 81.314,300.041 79.5,297.5C 80.1371,294.544 80.6371,291.544 81,288.5C 82.7547,287.33 83.7547,285.663 84,283.5C 84.3826,284.056 84.8826,284.389 85.5,284.5C 82.8139,289.161 81.9806,294.161 83,299.5C 84.5185,300.163 85.6851,301.163 86.5,302.5C 89.9619,303.482 93.6286,303.815 97.5,303.5C 101.054,304.249 104.72,305.082 108.5,306C 134.343,307.015 159.677,304.015 184.5,297C 187.092,293.492 189.926,290.325 193,287.5C 193.333,287.833 193.667,288.167 194,288.5C 196.995,280.107 198.161,271.44 197.5,262.5C 198.653,253.605 200.32,244.938 202.5,236.5 Z"/></g>
<g><path style="opacity:1" fill="#81888e" d="M 173.5,295.5 C 173.196,296.15 172.863,296.817 172.5,297.5C 162.655,298.435 152.989,299.935 143.5,302C 128.19,303.208 112.857,303.708 97.5,303.5C 93.6286,303.815 89.9619,303.482 86.5,302.5C 115.689,302.429 144.689,300.095 173.5,295.5 Z"/></g>
<g><path style="opacity:1" fill="#7e868c" d="M 298.5,218.5 C 303.317,241.369 308.15,264.369 313,287.5C 314.902,292.4 318.402,295.567 323.5,297C 351.268,302.21 379.268,305.377 407.5,306.5C 387.737,309.529 367.737,309.362 347.5,306C 338.286,303.49 328.953,301.49 319.5,300C 318.333,296.833 316.167,294.667 313,293.5C 310.509,286.189 308.342,278.856 306.5,271.5C 303.835,254.848 301.168,238.182 298.5,221.5C 298.5,220.5 298.5,219.5 298.5,218.5 Z"/></g>
<g><path style="opacity:1" fill="#191f25" d="M 279.5,282.5 C 283.169,296.379 277.835,304.879 263.5,308C 254.77,308.876 246.104,308.542 237.5,307C 230.137,304.796 224.804,300.296 221.5,293.5C 221.338,291.473 221.505,289.473 222,287.5C 222.712,294.547 226.212,299.714 232.5,303C 245.842,308.962 259.176,308.962 272.5,303C 274.765,301.242 276.432,299.075 277.5,296.5C 277.5,295.833 277.5,295.167 277.5,294.5C 278.665,293.504 279.332,292.171 279.5,290.5C 278.331,288.58 277.331,286.58 276.5,284.5C 274.684,283.185 273.017,281.685 271.5,280C 261.269,275.699 250.602,274.365 239.5,276C 233.146,277.259 227.979,280.426 224,285.5C 223.833,285.167 223.667,284.833 223.5,284.5C 225.839,281.661 228.339,278.995 231,276.5C 241.588,272.403 252.421,271.57 263.5,274C 267.718,276.907 272.385,278.741 277.5,279.5C 277.285,281.179 277.952,282.179 279.5,282.5 Z"/></g>
<g><path style="opacity:1" fill="#5d656b" d="M 306.5,271.5 C 308.342,278.856 310.509,286.189 313,293.5C 316.167,294.667 318.333,296.833 319.5,300C 328.953,301.49 338.286,303.49 347.5,306C 367.737,309.362 387.737,309.529 407.5,306.5C 407.833,306.5 408.167,306.5 408.5,306.5C 408.33,307.822 408.663,308.989 409.5,310C 397.505,310.5 385.505,310.667 373.5,310.5C 373.167,310.5 372.833,310.5 372.5,310.5C 359.271,309.201 345.937,307.701 332.5,306C 325.517,304.342 318.851,301.842 312.5,298.5C 309.124,289.875 307.124,280.875 306.5,271.5 Z"/></g>
<g><path style="opacity:1" fill="#434a50" d="M 412.5,304.5 C 412.423,305.75 411.756,306.583 410.5,307C 413.936,307.227 414.936,308.727 413.5,311.5C 399.99,311.829 386.656,311.496 373.5,310.5C 385.505,310.667 397.505,310.5 409.5,310C 408.663,308.989 408.33,307.822 408.5,306.5C 409.833,305.833 411.167,305.167 412.5,304.5 Z"/></g>
<g><path style="opacity:1" fill="#464c52" d="M 202.5,288.5 C 203.808,290.638 203.475,292.638 201.5,294.5C 201.727,304.2 197.06,310.033 187.5,312C 184.793,312.395 182.127,312.895 179.5,313.5C 180.301,311.958 180.634,310.292 180.5,308.5C 184.346,308.455 188.013,307.622 191.5,306C 193.344,303.657 195.344,301.49 197.5,299.5C 198.192,300.025 198.692,300.692 199,301.5C 199.181,296.736 200.348,292.403 202.5,288.5 Z"/></g>
<g><path style="opacity:1" fill="#333a40" d="M 172.5,314.5 C 171.244,314.096 170.077,313.429 169,312.5C 167.635,313.456 166.135,314.122 164.5,314.5C 159.332,315.007 154.332,315.673 149.5,316.5C 148.209,316.263 147.209,316.596 146.5,317.5C 142.186,316.171 137.852,316.171 133.5,317.5C 124.962,315.181 116.295,313.347 107.5,312C 130.827,310.754 154.16,310.087 177.5,310C 177.833,310.333 178.167,310.667 178.5,311C 177.667,311.167 176.833,311.333 176,311.5C 174.45,311.05 172.95,310.883 171.5,311C 172.337,312.011 172.67,313.178 172.5,314.5 Z"/></g>
<g><path style="opacity:1" fill="#0b0f12" d="M 336.5,313.5 C 336.316,316.321 337.649,317.988 340.5,318.5C 343.351,324.203 346.185,329.87 349,335.5C 351.482,336.998 353.982,338.498 356.5,340C 369.703,339.814 382.703,339.648 395.5,339.5C 400.521,340.002 405.521,340.668 410.5,341.5C 403.009,343.572 395.342,344.905 387.5,345.5C 383.93,344.615 380.263,343.615 376.5,342.5C 363.836,345.201 351.169,345.034 338.5,342C 336.266,341.031 334.266,339.698 332.5,338C 335.598,334.498 336.265,330.498 334.5,326C 324.16,326.189 313.827,326.856 303.5,328C 302.099,328.41 300.766,328.91 299.5,329.5C 302.348,323.346 303.015,317.013 301.5,310.5C 300.502,301.518 300.002,292.518 300,283.5C 301.333,284.167 302.333,285.167 303,286.5C 304.206,290.45 305.206,294.45 306,298.5C 306.792,300.587 307.959,302.421 309.5,304C 309.167,304.333 308.833,304.667 308.5,305C 312.123,310.107 317.123,312.774 323.5,313C 327.873,312.651 332.206,312.818 336.5,313.5 Z"/></g>
<g><path style="opacity:1" fill="#1f2428" d="M 380.5,216.5 C 383.315,217.126 385.815,218.46 388,220.5C 388.297,223.914 388.964,227.247 390,230.5C 400.96,251.707 410.96,273.373 420,295.5C 420.651,297.235 420.485,298.902 419.5,300.5C 420.874,301.711 422.374,302.711 424,303.5C 426.28,301.023 428.28,298.356 430,295.5C 429.679,290.837 428.179,286.504 425.5,282.5C 425.833,282.5 426.167,282.5 426.5,282.5C 430.649,288.787 433.649,295.454 435.5,302.5C 436.914,304.054 438.581,305.388 440.5,306.5C 441.935,305.176 442.935,303.51 443.5,301.5C 447.251,308.837 445.585,314.503 438.5,318.5C 436.568,319.52 434.568,319.687 432.5,319C 433.696,318.346 433.696,317.846 432.5,317.5C 431.833,318.167 431.167,318.833 430.5,319.5C 424.961,317.875 419.295,317.208 413.5,317.5C 413.33,316.178 413.663,315.011 414.5,314C 420.167,313.667 425.833,313.333 431.5,313C 431.957,312.586 432.291,312.086 432.5,311.5C 428.104,307.109 422.77,305.442 416.5,306.5C 417.084,309.285 416.084,310.952 413.5,311.5C 414.936,308.727 413.936,307.227 410.5,307C 411.756,306.583 412.423,305.75 412.5,304.5C 415.26,302.604 416.094,299.937 415,296.5C 412.698,287.751 410.031,279.085 407,270.5C 406.075,269.953 405.242,269.287 404.5,268.5C 398.957,255.746 392.124,243.746 384,232.5C 383.45,229.202 382.95,226.202 382.5,223.5C 382.977,222.522 383.643,221.689 384.5,221C 383.301,219.306 381.968,217.806 380.5,216.5 Z"/></g>
<g><path style="opacity:1" fill="#32373c" d="M 297.5,281.5 C 298.238,290.506 299.072,299.84 300,309.5C 300.383,310.056 300.883,310.389 301.5,310.5C 303.015,317.013 302.348,323.346 299.5,329.5C 298.5,330.167 297.5,330.833 296.5,331.5C 293.484,331.841 290.818,333.007 288.5,335C 264.167,335.667 239.833,335.667 215.5,335C 211.031,332.358 207.031,329.191 203.5,325.5C 202.833,325.5 202.5,325.167 202.5,324.5C 201.766,314.364 201.432,304.364 201.5,294.5C 203.475,292.638 203.808,290.638 202.5,288.5C 202.842,287.662 203.508,287.328 204.5,287.5C 204.784,290.852 205.95,293.852 208,296.5C 212.72,296.079 217.22,295.079 221.5,293.5C 224.804,300.296 230.137,304.796 237.5,307C 246.104,308.542 254.77,308.876 263.5,308C 277.835,304.879 283.169,296.379 279.5,282.5C 280.641,280.771 282.307,279.771 284.5,279.5C 288.027,279.76 291.694,279.926 295.5,280C 294.167,280.333 292.833,280.667 291.5,281C 293.473,281.495 295.473,281.662 297.5,281.5 Z"/></g>
<g><path style="opacity:1" fill="#324651" d="M 277.5,294.5 C 277.5,295.167 277.5,295.833 277.5,296.5C 272.559,296.268 267.725,296.268 263,296.5C 261.37,295.287 259.536,294.454 257.5,294C 258.696,293.346 258.696,292.846 257.5,292.5C 256.833,292.833 256.167,293.167 255.5,293.5C 254.887,292.02 254.554,290.687 254.5,289.5C 253.833,290.833 253.167,292.167 252.5,293.5C 251.784,292.689 250.95,292.022 250,291.5C 247.908,293.907 245.908,293.907 244,291.5C 241.667,294.167 239.333,294.167 237,291.5C 235.204,292.767 233.371,292.767 231.5,291.5C 230.252,292.04 229.085,292.707 228,293.5C 226.431,289.098 227.931,287.098 232.5,287.5C 236.211,288.461 239.711,288.461 243,287.5C 243.451,289.929 244.285,290.096 245.5,288C 254.833,287.333 264.167,287.333 273.5,288C 274.357,288.689 275.023,289.522 275.5,290.5C 274.605,292.345 275.272,293.678 277.5,294.5 Z"/></g>
<g><path style="opacity:1" fill="#22272c" d="M 298.5,221.5 C 301.168,238.182 303.835,254.848 306.5,271.5C 307.124,280.875 309.124,289.875 312.5,298.5C 315.968,301.107 319.634,303.607 323.5,306C 327.637,306.839 331.637,307.673 335.5,308.5C 334.127,308.343 332.793,308.51 331.5,309C 340.67,309.87 349.003,311.204 356.5,313C 366.5,313.324 376.5,313.157 386.5,312.5C 394.322,312.26 401.989,313.093 409.5,315C 404.343,316.283 399.01,316.95 393.5,317C 395.5,317.333 397.5,317.667 399.5,318C 387.011,319.268 374.511,320.435 362,321.5C 356.93,320.302 351.763,319.469 346.5,319C 343.268,316.886 339.935,315.053 336.5,313.5C 332.206,312.818 327.873,312.651 323.5,313C 317.123,312.774 312.123,310.107 308.5,305C 308.833,304.667 309.167,304.333 309.5,304C 307.959,302.421 306.792,300.587 306,298.5C 305.206,294.45 304.206,290.45 303,286.5C 302.333,285.167 301.333,284.167 300,283.5C 300.002,292.518 300.502,301.518 301.5,310.5C 300.883,310.389 300.383,310.056 300,309.5C 299.072,299.84 298.238,290.506 297.5,281.5C 298.967,282.292 300.3,282.292 301.5,281.5C 298.036,276.706 296.87,271.373 298,265.5C 298.667,266.167 299.333,266.833 300,267.5C 301.102,264.095 300.268,261.428 297.5,259.5C 296.887,260.98 296.554,262.313 296.5,263.5C 294.597,260.906 293.264,258.072 292.5,255C 293.806,250.039 294.473,245.206 294.5,240.5C 294.312,242.103 294.812,243.437 296,244.5C 296.167,241.667 296.333,238.833 296.5,236C 296.114,229.432 295.614,222.932 295,216.5C 295.667,219.167 296.333,219.167 297,216.5C 297.198,218.382 297.698,220.048 298.5,221.5 Z"/></g>
<g><path style="opacity:1" fill="#161b1f" d="M 453.5,331.5 C 451.488,332.524 449.822,334.024 448.5,336C 436.875,339.163 425.542,342.997 414.5,347.5C 404.002,346.468 393.668,347.634 383.5,351C 362.863,353.52 341.863,354.854 320.5,355C 319.5,355.5 318.5,356 317.5,356.5C 293.853,356.802 270.186,356.469 246.5,355.5C 236.34,354.946 226.173,354.946 216,355.5C 204.929,354.825 193.929,353.491 183,351.5C 181.6,352.116 180.1,352.449 178.5,352.5C 168.272,351.24 158.272,349.573 148.5,347.5C 171.772,349.775 195.105,351.275 218.5,352C 252.875,352.173 287.208,352.673 321.5,353.5C 343.502,351 365.502,348.333 387.5,345.5C 395.342,344.905 403.009,343.572 410.5,341.5C 405.521,340.668 400.521,340.002 395.5,339.5C 382.703,339.648 369.703,339.814 356.5,340C 353.982,338.498 351.482,336.998 349,335.5C 346.185,329.87 343.351,324.203 340.5,318.5C 337.649,317.988 336.316,316.321 336.5,313.5C 339.935,315.053 343.268,316.886 346.5,319C 351.763,319.469 356.93,320.302 362,321.5C 374.511,320.435 387.011,319.268 399.5,318C 397.5,317.667 395.5,317.333 393.5,317C 399.01,316.95 404.343,316.283 409.5,315C 401.989,313.093 394.322,312.26 386.5,312.5C 376.5,313.157 366.5,313.324 356.5,313C 349.003,311.204 340.67,309.87 331.5,309C 332.793,308.51 334.127,308.343 335.5,308.5C 347.804,309.664 360.137,310.331 372.5,310.5C 372.833,310.5 373.167,310.5 373.5,310.5C 386.656,311.496 399.99,311.829 413.5,311.5C 416.084,310.952 417.084,309.285 416.5,306.5C 422.77,305.442 428.104,307.109 432.5,311.5C 432.291,312.086 431.957,312.586 431.5,313C 425.833,313.333 420.167,313.667 414.5,314C 413.663,315.011 413.33,316.178 413.5,317.5C 419.295,317.208 424.961,317.875 430.5,319.5C 431.167,318.833 431.833,318.167 432.5,317.5C 433.696,317.846 433.696,318.346 432.5,319C 434.568,319.687 436.568,319.52 438.5,318.5C 445.585,314.503 447.251,308.837 443.5,301.5C 442.935,303.51 441.935,305.176 440.5,306.5C 438.581,305.388 436.914,304.054 435.5,302.5C 437.117,303.038 438.784,303.371 440.5,303.5C 439.799,297.389 438.466,291.389 436.5,285.5C 437.117,285.389 437.617,285.056 438,284.5C 439.387,286.301 440.887,286.968 442.5,286.5C 441.066,284.78 440.233,282.78 440,280.5C 439.667,281.167 439.333,281.833 439,282.5C 438.506,280.866 438.34,279.199 438.5,277.5C 439.675,277.281 440.675,277.614 441.5,278.5C 442.394,281.392 443.728,284.059 445.5,286.5C 445.167,287.167 444.833,287.833 444.5,288.5C 447.322,290.837 449.155,293.837 450,297.5C 451.387,306.268 453.22,314.935 455.5,323.5C 454.809,326.198 454.142,328.865 453.5,331.5 Z"/></g>
<g><path style="opacity:1" fill="#0d1215" d="M 201.5,294.5 C 201.432,304.364 201.766,314.364 202.5,324.5C 201.527,324.013 200.527,323.513 199.5,323C 200.711,322.107 200.711,321.274 199.5,320.5C 196.018,317.511 193.018,317.844 190.5,321.5C 192.207,323.642 193.041,325.975 193,328.5C 192.333,325.833 191.667,325.833 191,328.5C 190.517,327.552 190.351,326.552 190.5,325.5C 188.133,324.836 186.133,323.503 184.5,321.5C 184.709,320.914 185.043,320.414 185.5,320C 173.848,320.322 162.181,320.822 150.5,321.5C 151.999,326.313 151.666,330.98 149.5,335.5C 148.817,335.863 148.15,336.196 147.5,336.5C 142.492,334.351 143.159,333.018 149.5,332.5C 149.5,329.5 149.5,326.5 149.5,323.5C 147.712,323.785 146.045,323.452 144.5,322.5C 146.938,321.069 148.604,319.069 149.5,316.5C 154.332,315.673 159.332,315.007 164.5,314.5C 166.135,314.122 167.635,313.456 169,312.5C 170.077,313.429 171.244,314.096 172.5,314.5C 174.78,314.646 177.113,314.313 179.5,313.5C 182.127,312.895 184.793,312.395 187.5,312C 197.06,310.033 201.727,304.2 201.5,294.5 Z"/></g>
<g><path style="opacity:1" fill="#030405" d="M 202.5,324.5 C 202.5,325.167 202.833,325.5 203.5,325.5C 205.819,332.18 210.486,336.346 217.5,338C 240.833,338.667 264.167,338.667 287.5,338C 291.525,337.127 294.525,334.961 296.5,331.5C 297.5,330.833 298.5,330.167 299.5,329.5C 300.766,328.91 302.099,328.41 303.5,328C 313.827,326.856 324.16,326.189 334.5,326C 336.265,330.498 335.598,334.498 332.5,338C 334.266,339.698 336.266,341.031 338.5,342C 351.169,345.034 363.836,345.201 376.5,342.5C 380.263,343.615 383.93,344.615 387.5,345.5C 365.502,348.333 343.502,351 321.5,353.5C 287.208,352.673 252.875,352.173 218.5,352C 195.105,351.275 171.772,349.775 148.5,347.5C 132.932,345.073 117.265,342.74 101.5,340.5C 110.067,339.486 118.734,339.82 127.5,341.5C 130.385,341.806 133.052,341.473 135.5,340.5C 139.374,339.048 143.374,337.715 147.5,336.5C 148.15,336.196 148.817,335.863 149.5,335.5C 151.666,330.98 151.999,326.313 150.5,321.5C 162.181,320.822 173.848,320.322 185.5,320C 185.043,320.414 184.709,320.914 184.5,321.5C 186.133,323.503 188.133,324.836 190.5,325.5C 190.351,326.552 190.517,327.552 191,328.5C 191.667,325.833 192.333,325.833 193,328.5C 193.041,325.975 192.207,323.642 190.5,321.5C 193.018,317.844 196.018,317.511 199.5,320.5C 200.711,321.274 200.711,322.107 199.5,323C 200.527,323.513 201.527,324.013 202.5,324.5 Z"/></g>
<g><path style="opacity:1" fill="#54585a" d="M 35.5,309.5 C 35.5,312.167 35.5,314.833 35.5,317.5C 34.3592,320.64 34.1925,323.973 35,327.5C 36.8205,329.146 37.9872,331.146 38.5,333.5C 35.8477,332.344 34.0143,330.344 33,327.5C 32.065,321.139 32.8984,315.139 35.5,309.5 Z"/></g>
<g><path style="opacity:0.984" fill="#696d6e" d="M 459.5,317.5 C 461.34,321.554 461.84,325.887 461,330.5C 460.065,333.595 458.231,335.929 455.5,337.5C 459.021,331.36 460.355,324.694 459.5,317.5 Z"/></g>
<g><path style="opacity:1" fill="#2b3033" d="M 35.5,317.5 C 35.5524,321.198 35.8857,324.865 36.5,328.5C 37.5,328.5 38.5,328.5 39.5,328.5C 50.0138,331.385 60.6804,333.719 71.5,335.5C 71.9175,336.222 72.5842,336.722 73.5,337C 72.8333,337.333 72.1667,337.667 71.5,338C 89.9588,341.992 108.459,345.492 127,348.5C 132.448,347.611 137.948,347.777 143.5,349C 154.823,350.765 165.823,352.932 176.5,355.5C 148.944,354.105 121.611,351.105 94.5,346.5C 87.7951,344.245 80.7951,342.745 73.5,342C 70.6489,340.777 67.9822,339.277 65.5,337.5C 64.2278,338.046 62.8945,338.379 61.5,338.5C 53.6912,336.625 46.0246,334.959 38.5,333.5C 37.9872,331.146 36.8205,329.146 35,327.5C 34.1925,323.973 34.3592,320.64 35.5,317.5 Z"/></g>
<g><path style="opacity:1" fill="#1d1f21" d="M 203.5,325.5 C 207.031,329.191 211.031,332.358 215.5,335C 239.833,335.667 264.167,335.667 288.5,335C 290.818,333.007 293.484,331.841 296.5,331.5C 294.525,334.961 291.525,337.127 287.5,338C 264.167,338.667 240.833,338.667 217.5,338C 210.486,336.346 205.819,332.18 203.5,325.5 Z"/></g>
<g><path style="opacity:1" fill="#3b4042" d="M 453.5,297.5 C 456.412,303.799 458.412,310.465 459.5,317.5C 460.355,324.694 459.021,331.36 455.5,337.5C 442.385,342.862 428.718,346.195 414.5,347.5C 425.542,342.997 436.875,339.163 448.5,336C 449.822,334.024 451.488,332.524 453.5,331.5C 455.285,331.074 456.285,329.908 456.5,328C 456.979,325.688 457.312,323.355 457.5,321C 456.367,313.078 455.033,305.244 453.5,297.5 Z"/></g>
<g><path style="opacity:1" fill="#474b4e" d="M 38.5,333.5 C 46.0246,334.959 53.6912,336.625 61.5,338.5C 62.8945,338.379 64.2278,338.046 65.5,337.5C 67.9822,339.277 70.6489,340.777 73.5,342C 80.7951,342.745 87.7951,344.245 94.5,346.5C 77.3016,344.411 60.3016,341.245 43.5,337C 41.4156,336.303 39.7489,335.136 38.5,333.5 Z"/></g>
<g><path style="opacity:1" fill="#4e4d42" d="M 135.5,340.5 C 133.052,341.473 130.385,341.806 127.5,341.5C 127.97,340.307 128.97,339.64 130.5,339.5C 132.207,339.728 133.874,340.062 135.5,340.5 Z"/></g>
<g><path style="opacity:1" fill="#535045" d="M 269.5,344.5 C 277.84,344.334 286.173,344.5 294.5,345C 295.938,345.219 297.271,345.719 298.5,346.5C 291.352,347.479 284.185,347.479 277,346.5C 274.071,346.475 271.571,345.809 269.5,344.5 Z"/></g>
<g><path style="opacity:1" fill="#1d2225" d="M 71.5,335.5 C 81.4723,336.999 91.4723,338.665 101.5,340.5C 117.265,342.74 132.932,345.073 148.5,347.5C 158.272,349.573 168.272,351.24 178.5,352.5C 180.1,352.449 181.6,352.116 183,351.5C 193.929,353.491 204.929,354.825 216,355.5C 226.173,354.946 236.34,354.946 246.5,355.5C 239.576,357.463 232.243,358.13 224.5,357.5C 222.5,357.5 220.5,357.5 218.5,357.5C 205.36,356.054 192.026,355.387 178.5,355.5C 177.833,355.5 177.167,355.5 176.5,355.5C 165.823,352.932 154.823,350.765 143.5,349C 137.948,347.777 132.448,347.611 127,348.5C 108.459,345.492 89.9588,341.992 71.5,338C 72.1667,337.667 72.8333,337.333 73.5,337C 72.5842,336.722 71.9175,336.222 71.5,335.5 Z"/></g>
<g><path style="opacity:0.99" fill="#535454" d="M 178.5,355.5 C 192.026,355.387 205.36,356.054 218.5,357.5C 218.44,358.043 218.107,358.376 217.5,358.5C 204.359,357.71 191.359,356.71 178.5,355.5 Z"/></g>
<g><path style="opacity:1" fill="#323538" d="M 414.5,347.5 C 384.315,353.947 353.648,357.447 322.5,358C 289.664,358.831 256.997,358.664 224.5,357.5C 232.243,358.13 239.576,357.463 246.5,355.5C 270.186,356.469 293.853,356.802 317.5,356.5C 318.5,356 319.5,355.5 320.5,355C 341.863,354.854 362.863,353.52 383.5,351C 393.668,347.634 404.002,346.468 414.5,347.5 Z"/></g>
</svg>
